<svg version="1.0" xmlns="http://www.w3.org/2000/svg" width="410" height="123" viewBox="0 0 820 245" style="fill:#fff">
  <path d="M563 52.3v12.3l-8.7-.4c-10.1-.5-17.2 1.6-23.5 6.8-4.4 3.6-8.8 12.1-8.8 16.8 0 9.9 7.6 19.9 18 23.7 5.6 2 6.8 2.1 31.5 1.3l10-.3v-72l-9.2-.3-9.3-.3v12.4zm-7.6 16.8c4.1 1.9 4.8 5.3 4.4 21.4-.3 14-.4 14.8-2.7 16.6-3.2 2.6-6.7 2.4-9.6-.6-2.4-2.3-2.5-2.8-2.5-17.5 0-15.8.6-18.5 4.3-20 3-1.2 3.2-1.2 6.1.1zM145 78v36h18V90.9c0-18.4.3-22.9 1.3-22.1.6.6 8.4 11 17.2 23.1l16 22 9.8.1h9.7V42h-18l-.2 23.5-.3 23.6-17-23.5-17-23.6H145v36zm89.2-29.8.3 6.3h18l.3-6.3.3-6.2h-19.2l.3 6.2zM347 53v5h-6c-6 0-6 0-6 3 0 2.8.1 2.9 5.8 3.2l5.7.3.3 24.7.2 24.8h18V64h12v-6h-12V48h-18v5zm-54.8 8.8c-2.9 1.1-6.3 2.9-7.5 4.1-3.1 2.8-3.5 2.7-3.9-1.2l-.3-3.2-8.2-.3-8.3-.3V114h18l.1-14.8c.1-18 1.2-22.8 5.8-25.9 3.7-2.5 9.4-3 13.4-1.2 4.7 2.1 5.1 4.2 5.5 23.6l.4 18.3h17.9l-.3-21.4c-.3-19.8-.5-21.7-2.4-24.3-5-7-19.9-10.2-30.2-6.5zm188.5-.4c-2.1.8-5.5 2.6-7.7 4l-3.9 2.5-.3-3.2-.3-3.2h-17v52h18l.5-17.2c.4-15.4.7-17.4 2.6-20 1.1-1.5 3.2-3.4 4.5-4.1 3.6-1.9 11.6-1 14.2 1.7 2.1 2 2.2 3.4 2.7 20.9l.5 18.7h18V93c0-23.7-.5-25.6-8.6-29.8-5.9-3-17.6-3.9-23.2-1.8zm-246 .2c-.4.4-.7 12.4-.7 26.6v25.9l9.3-.3 9.2-.3v-52l-8.5-.3c-4.7-.1-8.9 0-9.3.4zM400 64.9C387.7 68.7 380 78 380 89c0 9.3 6.9 18.2 17 22.2 10.9 4.2 26.6 2.1 34.2-4.7 3-2.5 7.8-9.2 7.8-10.6 0-.5-4.9-.9-11-.9h-11v3.3c0 5.1-2.4 7.7-7 7.7-5.3 0-7-2.6-7-10.7V89h37v-2.7c0-7.4-8.1-16.7-17.7-20.3-5.6-2.1-17.2-2.6-22.3-1.1zm15 8.1c1.2 1.2 2 3.3 2 5.5V82h-14v-3.5c0-4.4 2.9-7.5 7-7.5 1.7 0 3.9.9 5 2zm200-8.1c-17.2 5.6-24.8 21.2-17 34.7 5 8.9 14.6 13.8 27 13.8 8.5 0 15.7-2.5 21.6-7.7 13.4-11.8 10.6-29.8-6.1-38.5-4.1-2.1-6.6-2.6-14-2.9-4.9-.1-10.1.1-11.5.6zm15 8.3c1.8 2 2 3.5 2 15.3 0 15.3-.8 17.5-6.7 17.5-6.7 0-7.3-1.5-7.3-17.2 0-12.5.2-14 2-15.8 2.7-2.7 7.4-2.6 10 .2zM44 150.4c-19.4 5.2-33.9 23.8-34 43.3-.1 29.5 26.6 51.3 55.2 45.2 17.6-3.8 31.6-18.5 35-36.7 1.8-9.8 3.1-9.3-21.9-9l-21.8.3-.3 7.2-.3 7.3H70c14 0 14.1 0 13 2.1-2.4 4.3-8.5 10.1-13.4 12.6-16.2 8.3-37 0-43.5-17.2-5.7-15 .8-31.6 15.4-39.3 4.3-2.3 6.2-2.7 14-2.7s9.7.4 14 2.7c2.8 1.4 6.6 4.2 8.4 6.2 3.4 3.5 3.6 3.6 11.3 3.6H97l-2.1-4.2c-4.9-9.6-17.6-19.1-29-21.7-5.9-1.4-16.4-1.2-21.9.3zm654.8-.3c-6.6 1.5-16 6.9-21.4 12.3-17.7 17.8-17.7 46.5 0 64 16.3 16.2 40.7 17.9 59.5 4.1 5.5-4 12.1-11.9 12.1-14.4 0-.7-3.1-1.1-8.3-1.1-7.3 0-8.6.3-10.3 2.1-5.5 6.1-16.9 9.5-26.4 7.7-6.8-1.2-10.1-2.9-15.7-8.1-12.9-11.8-13.1-31.9-.6-44.3 11.4-11.2 29.7-11.9 41.5-1.5 3.4 2.9 4 3.1 11.7 3.1 5.5 0 8.1-.4 8.1-1.2 0-2.6-8.3-11.8-14-15.7-10.7-7.1-24.5-9.8-36.2-7zm-578 42.6c-15.6 23.5-28.2 43-28 43.3.1.3 3.9.5 8.4.5h8.3l6.3-9.2 6.3-9.3h26.8l.3 9.3.3 9.2h14l.3-43.3.2-43.2h-14.9l-28.3 42.7zm27.9 10c-.3.2-4.1.3-8.5.1l-8-.3 8.1-12.3 8.2-12.3.3 12.2c.1 6.7.1 12.4-.1 12.6zm48.5-10.1c-15.5 23.4-28 43-27.7 43.5.4.5 4.1.9 8.4.9h7.8l19.9-29.8 19.9-29.7.3 29.8.2 29.8 7.3-.3 7.2-.3 19.5-29.4 19.5-29.4.5 29.4.5 29.4h14l.3-43.3.2-43.2h-15.1l-19.2 29.1-19.2 29.1-.3-29.1-.2-29.1h-15.5l-28.3 42.6zm110 .6.3 43.3h44l.3-7.3.3-7.2H322v-19.9l14.8-.3 14.7-.3v-15l-14.7-.3-14.8-.3V165h30v-15h-45l.2 43.2zm79.2-40.3c-6.4 2.9-9.7 8-10.2 15.6-.5 6.8 1 10.8 5.6 15.7l2.5 2.8-2.9 2.2c-8.9 6.9-11.9 12.7-11.9 22.8 0 6.5.4 8.2 3 12.8 3 5.6 8.3 10 14.4 12 4.4 1.5 13.3 1.5 18.3 0 4.5-1.3 11.7-7.3 14.8-12.3l2.2-3.5 8.1 7.5c4.4 4.1 8.3 7.5 8.7 7.5.3 0 2.6-2.1 5-4.6l4.5-4.5-3-2.6c-1.6-1.4-6.3-5.7-10.4-9.5l-7.3-6.8 5.6-12.6c3.1-6.9 5.6-13 5.6-13.5 0-.6-3.1-.9-7.2-.7l-7.1.3-3.5 8.2c-1.9 4.6-3.8 8.3-4.1 8.3-.4 0-2.9-2.2-5.5-4.9l-4.9-5 2.8-3.3c3.8-4.5 6.5-10.6 6.5-14.8 0-4.3-2.9-10.7-6.1-13.7-5.8-5.3-16-6.8-23.5-3.4zm13.4 12.7c1.4.9 2.2 2.6 2.2 4.3 0 3.4-3.5 8.1-6 8.1-2.4 0-7-5.5-7-8.5 0-2.7 3.4-5.5 6.5-5.5 1.1 0 3.1.7 4.3 1.6zm3.6 38.1c4.2 3.9 7.6 7.8 7.6 8.6 0 2.7-6.1 9.9-9.7 11.4-4.7 1.9-11.3 1-14.6-2.1-4.6-4.3-5.3-12.8-1.4-17.6 1.9-2.4 9.1-8 9.8-7.8.3.2 4.1 3.5 8.3 7.5zm58.8-8.5.3 43.3h14.9l19.5-29.4 19.6-29.4.3 29.6.2 29.7h14.7l27.9-42.1c15.4-23.2 28.3-42.8 28.7-43.5.6-1.1-.9-1.4-8.1-1.4h-9l-19.3 29.2-19.4 29.3-.3-29.3-.2-29.2h-15l-19.2 29c-10.6 15.9-19.6 29-20 29-.5 0-.8-13.1-.8-29v-29h-15l.2 43.2zm108.3-1.1c-15.4 23.2-28.1 42.7-28.3 43.5-.3 1.1 1.4 1.4 8.1 1.4h8.4l6.3-9.5 6.3-9.6 13.6.3 13.6.3.3 9.3.3 9.3 7.2-.3 7.2-.3v-86l-7.5-.3-7.5-.2-28 42.1zm28.5-1.6V205h-8.5c-4.7 0-8.5-.2-8.5-.5 0-.8 16-24.5 16.5-24.5.3 0 .5 5.6.5 12.5z"/>
  <path d="m619.2 159.2.3 7.3 8.2.3 8.3.3.2 35.7.3 35.7h14l.3-35.7.2-35.7 8.3-.3 8.2-.3.3-7.3.3-7.2h-49.2l.3 7.2zM754 195.5V239h14v-37h27l.2 18.2.3 18.3 7.3.3 7.2.3V152h-15v35.1l-13.2-.3-13.3-.3-.3-17.3-.2-17.2h-14v43.5z"/>
</svg>