<svg id="svg" version="1.1" xmlns="http://www.w3.org/2000/svg" xmlns:xlink="http://www.w3.org/1999/xlink" width="400" height="104.03458213256484" viewBox="0, 0, 400,104.03458213256484"><g id="svgg"><path id="path0" d="M130.083 8.103 C 115.066 9.308,103.089 15.944,94.877 27.610 L 93.792 29.151 92.881 27.700 C 90.785 24.360,84.113 17.639,80.583 15.311 C 75.659 12.064,69.655 10.309,61.267 9.665 C 57.402 9.368,31.037 9.451,30.122 9.763 C 28.109 10.448,27.432 11.524,26.249 15.917 C 25.730 17.842,25.207 19.754,25.087 20.167 C 24.967 20.579,24.711 21.517,24.517 22.250 C 24.219 23.375,23.340 26.656,22.419 30.083 C 22.296 30.542,20.272 38.079,17.923 46.833 C 14.273 60.434,10.368 74.968,9.326 78.833 C 7.838 84.358,7.812 84.669,8.697 86.441 C 9.349 87.747,15.222 93.380,16.333 93.765 C 17.713 94.244,41.745 94.259,43.112 93.783 C 45.425 92.976,45.730 92.356,48.007 83.833 C 49.023 80.029,49.966 76.530,50.101 76.058 L 50.348 75.199 56.132 75.124 C 69.914 74.945,79.499 71.731,86.678 64.881 L 87.773 63.837 88.164 65.127 C 89.338 69.006,91.768 73.428,94.599 76.833 C 95.954 78.464,103.437 85.858,104.833 86.946 C 120.205 98.928,143.751 98.250,159.840 85.361 C 161.161 84.303,161.332 84.258,161.335 84.968 C 161.339 86.056,162.071 87.027,165.273 90.189 C 168.640 93.514,168.889 93.699,170.419 93.993 C 171.954 94.289,195.363 94.155,196.196 93.846 C 198.370 93.039,198.938 92.029,200.514 86.167 C 201.168 83.737,201.754 81.655,201.818 81.538 C 201.885 81.416,202.276 82.225,202.745 83.455 C 204.022 86.802,204.022 86.802,207.445 90.189 C 211.922 94.618,209.890 94.199,226.583 94.134 L 239.583 94.083 240.417 93.700 C 243.612 92.231,244.196 89.599,242.310 85.167 C 240.008 79.757,235.481 68.797,235.531 68.756 C 235.560 68.733,236.277 68.358,237.124 67.924 C 246.299 63.221,251.966 55.078,253.079 45.000 L 253.180 44.083 257.507 44.130 C 260.976 44.168,261.833 44.221,261.833 44.400 C 261.833 44.579,259.729 52.526,258.166 58.250 C 251.023 84.410,251.028 84.385,251.882 86.170 C 252.589 87.651,258.416 93.338,259.667 93.768 C 260.534 94.066,261.256 94.083,273.167 94.083 L 285.750 94.083 286.667 93.652 C 288.850 92.623,289.095 92.144,290.915 85.333 C 292.288 80.192,295.083 69.808,298.003 59.000 C 298.733 56.296,299.922 51.871,300.644 49.167 L 301.956 44.250 308.657 44.250 L 315.358 44.250 316.064 46.000 C 316.856 47.961,317.764 49.530,319.017 51.104 C 319.761 52.039,319.825 52.180,319.556 52.280 C 318.757 52.576,317.906 53.341,316.468 55.053 C 315.607 56.078,313.368 58.748,311.493 60.986 C 309.618 63.224,307.165 66.149,306.042 67.486 C 301.897 72.421,301.963 73.798,306.565 78.477 C 317.769 89.868,331.062 95.385,347.333 95.397 C 368.663 95.412,383.079 84.164,383.939 66.833 C 384.265 60.266,382.377 55.050,377.934 50.243 L 376.451 48.638 376.874 48.246 C 377.106 48.030,378.034 46.968,378.936 45.885 C 379.838 44.803,380.616 43.879,380.665 43.833 C 380.714 43.788,382.288 41.912,384.164 39.667 C 386.040 37.421,388.422 34.573,389.459 33.339 C 393.286 28.779,393.063 27.399,387.641 22.075 C 377.067 11.694,360.248 6.316,344.917 8.416 C 337.886 9.378,332.638 11.170,327.837 14.247 L 326.634 15.019 324.259 12.692 C 322.953 11.413,321.554 10.190,321.150 9.975 L 320.417 9.583 287.090 9.540 C 249.862 9.492,252.903 9.393,251.427 10.692 C 250.217 11.758,249.970 12.378,248.417 18.250 C 247.617 21.275,246.933 23.782,246.896 23.822 C 246.858 23.862,245.273 22.357,243.372 20.478 C 238.230 15.393,236.246 14.065,230.917 12.135 C 224.476 9.804,220.245 9.457,199.167 9.529 C 181.377 9.590,182.937 9.469,181.457 10.909 C 180.400 11.938,179.557 14.724,174.724 33.167 C 174.193 35.190,174.145 35.223,173.582 33.966 C 171.138 28.508,162.563 19.073,156.178 14.816 C 149.237 10.189,138.503 7.428,130.083 8.103 M139.005 10.574 C 158.518 13.170,171.402 28.352,169.848 46.917 C 167.783 71.577,146.653 89.255,122.143 86.829 C 102.146 84.850,88.597 69.597,89.990 50.633 C 91.840 25.463,114.110 7.262,139.005 10.574 M358.205 10.575 C 368.338 11.833,376.590 15.129,383.374 20.625 C 385.408 22.274,385.359 23.101,383.063 25.839 C 382.181 26.890,379.989 29.512,378.191 31.667 C 376.393 33.821,374.881 35.621,374.832 35.667 C 374.782 35.712,373.828 36.843,372.711 38.179 C 370.599 40.703,370.229 41.001,369.200 40.999 C 368.535 40.998,368.409 40.929,366.309 39.409 C 361.001 35.569,354.760 33.335,349.333 33.335 C 345.290 33.335,345.601 33.851,350.833 35.825 C 360.114 39.328,361.762 40.009,364.606 41.514 C 375.314 47.182,379.237 56.500,375.658 67.764 C 368.654 89.811,331.855 94.004,309.046 75.355 C 305.631 72.562,305.637 72.454,309.462 67.890 C 315.970 60.123,318.415 57.200,319.060 56.417 C 321.525 53.419,322.102 53.347,325.000 55.678 C 329.730 59.483,335.305 62.234,340.583 63.368 C 342.630 63.807,346.899 63.898,347.792 63.521 C 349.356 62.861,347.924 62.069,339.333 58.839 C 328.915 54.922,324.281 52.098,321.135 47.750 C 317.338 42.500,316.968 33.626,320.258 26.732 C 325.905 14.902,341.069 8.446,358.205 10.575 M65.500 12.136 C 84.607 14.963,93.254 27.558,88.062 45.000 C 84.533 56.857,74.706 64.084,58.955 66.407 C 57.533 66.616,52.146 66.827,48.136 66.830 C 44.205 66.833,43.849 66.857,43.769 67.125 C 43.721 67.285,42.660 71.234,41.411 75.901 C 40.163 80.567,39.030 84.554,38.894 84.761 C 38.288 85.685,38.567 85.667,25.425 85.667 C 12.270 85.667,12.778 85.702,12.026 84.746 C 11.338 83.870,11.326 83.928,14.671 71.471 C 19.890 52.030,21.341 46.629,21.580 45.750 C 21.978 44.283,24.800 33.776,26.436 27.667 C 30.717 11.683,30.509 12.357,31.294 11.922 C 32.113 11.468,62.259 11.656,65.500 12.136 M222.000 12.122 C 238.106 14.435,246.061 22.304,246.057 35.917 C 246.053 47.658,239.757 56.759,228.583 61.176 C 228.033 61.393,227.562 61.582,227.537 61.596 C 227.511 61.610,227.863 62.513,228.319 63.602 C 235.705 81.252,236.333 82.811,236.333 83.482 C 236.332 83.813,236.186 84.323,236.007 84.617 C 235.335 85.718,236.037 85.667,221.633 85.666 C 207.054 85.666,207.796 85.726,207.139 84.500 C 206.889 84.033,201.475 70.276,200.137 66.708 L 199.809 65.833 198.507 65.833 C 197.217 65.833,197.204 65.838,197.124 66.292 C 196.899 67.564,192.286 84.298,192.068 84.630 C 191.356 85.716,192.017 85.665,178.620 85.666 C 165.471 85.667,165.710 85.683,165.105 84.759 C 164.508 83.849,164.564 83.492,166.335 76.908 C 167.271 73.429,168.397 69.233,168.839 67.583 C 169.280 65.933,171.002 59.521,172.665 53.333 C 174.328 47.146,176.240 40.021,176.914 37.500 C 177.589 34.979,178.788 30.517,179.579 27.583 C 183.984 11.256,183.631 12.384,184.482 11.911 C 185.270 11.474,218.800 11.662,222.000 12.122 M320.850 12.047 C 322.187 12.945,322.252 12.491,319.115 24.187 C 316.970 32.187,316.247 34.656,315.958 34.970 C 315.158 35.838,315.222 35.833,305.012 35.833 L 295.513 35.833 295.340 36.458 C 294.957 37.840,293.807 42.111,292.928 45.417 C 292.416 47.342,291.852 49.442,291.674 50.083 C 291.496 50.725,289.840 56.875,287.993 63.750 C 286.147 70.625,284.535 76.625,284.412 77.083 C 284.289 77.542,284.078 78.329,283.944 78.833 C 282.475 84.331,282.406 84.535,281.826 85.091 L 281.312 85.583 269.197 85.632 C 255.905 85.685,256.226 85.700,255.513 84.987 C 254.505 83.980,254.104 85.872,259.857 64.500 C 260.585 61.796,261.885 56.958,262.746 53.750 C 263.606 50.542,265.001 45.367,265.844 42.250 C 266.688 39.133,267.415 36.415,267.459 36.208 L 267.539 35.833 258.681 35.833 C 246.378 35.833,246.987 36.253,248.902 29.083 C 252.438 15.849,253.195 13.095,253.421 12.659 C 253.965 11.607,251.408 11.681,287.434 11.673 L 320.284 11.667 320.850 12.047 M51.712 37.376 C 51.324 38.865,50.673 41.351,50.264 42.900 L 49.521 45.717 51.886 45.612 C 57.949 45.343,61.322 43.003,61.394 39.016 C 61.448 35.975,59.291 34.678,54.167 34.671 L 52.417 34.668 51.712 37.376 M129.083 35.438 C 118.091 37.743,113.551 55.911,122.751 60.780 C 130.985 65.137,140.980 58.336,141.982 47.695 C 142.775 39.263,137.002 33.778,129.083 35.438 M205.962 35.634 C 205.243 35.695,205.343 35.439,203.841 41.083 C 203.378 42.825,202.961 44.351,202.915 44.475 C 202.760 44.891,211.079 44.645,212.729 44.184 C 218.691 42.520,220.008 37.088,214.750 35.850 C 213.983 35.669,207.456 35.509,205.962 35.634 M138.237 43.848 C 138.485 44.096,138.694 46.060,138.617 47.417 C 138.198 54.798,132.674 60.580,126.661 59.932 C 125.248 59.780,125.201 59.741,124.981 58.574 C 123.889 52.767,128.140 45.433,133.487 43.899 C 134.241 43.682,138.031 43.642,138.237 43.848 M307.250 47.329 C 305.662 47.514,303.095 49.274,304.120 49.475 C 304.644 49.577,304.647 49.725,304.159 51.167 L 303.680 52.583 304.965 52.715 C 305.672 52.788,307.499 52.824,309.026 52.795 L 311.802 52.743 311.943 53.381 C 312.137 54.262,312.270 54.228,312.955 53.125 C 313.584 52.112,313.733 51.171,313.445 50.042 C 313.322 49.560,313.345 49.500,313.653 49.500 C 314.081 49.500,314.084 49.420,313.679 48.851 C 313.136 48.087,311.844 47.506,310.299 47.328 C 308.801 47.156,308.733 47.156,307.250 47.329 M132.744 48.113 C 132.557 48.150,132.182 48.362,131.911 48.584 L 131.417 48.988 132.750 49.007 C 133.483 49.017,134.215 49.051,134.375 49.081 C 134.769 49.157,134.746 48.746,134.333 48.333 C 134.018 48.018,133.547 47.953,132.744 48.113 M131.863 49.831 C 131.485 50.105,130.952 50.722,130.677 51.202 L 130.178 52.076 131.047 52.262 C 131.526 52.364,132.110 52.502,132.347 52.568 C 132.747 52.680,132.809 52.619,133.222 51.699 C 134.144 49.646,133.445 48.685,131.863 49.831 M84.542 71.672 C 83.846 71.951,84.587 76.345,85.820 79.250 C 85.897 79.433,86.172 80.108,86.429 80.750 C 88.461 85.819,93.174 92.032,97.343 95.134 C 99.025 96.386,100.827 97.667,100.908 97.667 C 100.955 97.667,101.392 97.921,101.878 98.233 C 102.902 98.888,106.274 100.518,107.250 100.830 C 107.617 100.947,107.992 101.098,108.083 101.164 C 108.334 101.345,110.704 102.094,112.583 102.587 C 119.319 104.354,128.722 104.492,135.167 102.920 C 141.896 101.278,147.287 98.781,152.372 94.951 C 153.821 93.859,153.732 93.832,151.764 94.764 C 149.661 95.761,149.590 95.627,151.583 94.421 C 153.259 93.407,153.864 92.889,152.648 93.509 C 138.627 100.662,119.723 100.011,106.830 91.931 C 100.406 87.906,92.038 79.358,88.378 73.083 C 87.962 72.370,87.951 72.650,88.347 73.900 C 88.642 74.833,88.493 74.739,87.691 73.487 C 86.581 71.754,85.659 71.223,84.542 71.672 M78.740 73.731 C 73.187 76.337,66.459 77.838,58.833 78.171 C 54.365 78.366,53.653 78.552,52.729 79.763 C 52.278 80.354,52.299 80.492,52.868 80.706 C 52.933 80.730,52.802 81.275,52.577 81.917 C 51.953 83.697,51.937 83.667,53.497 83.667 C 54.847 83.667,59.630 83.132,61.000 82.828 C 62.191 82.564,65.685 81.702,66.417 81.492 C 69.802 80.522,74.490 78.191,77.696 75.884 C 78.783 75.102,80.147 73.886,79.560 74.222 C 79.179 74.440,76.667 75.486,76.667 75.426 C 76.667 75.393,77.248 75.020,77.958 74.599 C 79.169 73.882,80.188 73.171,80.000 73.176 C 79.954 73.178,79.387 73.427,78.740 73.731 M301.977 80.625 C 299.926 82.794,299.607 85.479,301.067 88.301 C 301.803 89.725,307.028 93.914,310.583 95.931 C 313.515 97.594,315.201 98.438,317.833 99.560 C 319.629 100.325,322.004 101.160,323.333 101.493 C 323.746 101.596,324.233 101.752,324.417 101.840 C 324.600 101.927,325.275 102.114,325.917 102.254 C 326.558 102.395,327.758 102.657,328.583 102.838 C 332.331 103.656,335.731 103.974,340.833 103.984 C 347.405 103.995,350.422 103.574,356.333 101.820 C 360.113 100.699,365.292 97.925,367.833 95.661 L 368.583 94.993 367.750 95.308 C 367.292 95.482,366.767 95.683,366.583 95.755 C 366.067 95.958,366.312 95.761,367.710 94.849 C 369.339 93.786,369.338 93.686,367.708 94.438 C 357.836 98.998,342.278 99.802,330.917 96.341 C 327.747 95.376,326.615 94.994,324.833 94.292 C 317.592 91.437,311.739 87.657,306.192 82.254 C 303.955 80.075,303.786 79.945,303.570 80.240 C 303.353 80.536,303.319 80.539,303.031 80.278 C 302.628 79.914,302.659 79.904,301.977 80.625 M249.517 91.647 C 248.750 94.097,248.625 94.651,248.546 95.959 C 248.366 98.952,250.195 101.502,253.167 102.402 C 253.994 102.652,255.334 102.674,266.917 102.631 L 279.750 102.583 280.750 102.191 C 281.626 101.848,282.067 101.477,284.301 99.214 C 286.856 96.625,287.065 96.357,286.304 96.646 C 284.607 97.291,262.528 97.385,260.083 96.757 C 257.836 96.180,256.322 95.209,253.599 92.598 C 252.251 91.306,252.094 91.201,251.893 91.462 C 251.691 91.725,251.600 91.676,250.846 90.897 L 250.019 90.044 249.517 91.647 M6.189 91.792 C 5.016 95.661,4.940 96.331,5.474 98.085 C 6.146 100.293,7.588 101.722,9.833 102.402 C 10.661 102.652,12.000 102.674,23.583 102.631 L 36.417 102.583 37.417 102.181 C 38.406 101.783,41.635 98.879,43.013 97.148 L 43.492 96.546 42.538 96.802 C 41.325 97.128,21.072 97.306,18.562 97.013 C 15.111 96.610,13.333 95.632,10.011 92.310 C 9.358 91.656,8.799 91.151,8.769 91.186 C 8.740 91.221,8.642 91.388,8.552 91.556 C 8.406 91.828,8.311 91.769,7.678 91.014 C 6.751 89.907,6.761 89.902,6.189 91.792 M159.172 92.361 C 158.972 93.033,158.720 93.808,158.613 94.083 C 157.631 96.588,159.008 100.330,161.434 101.752 C 163.022 102.682,162.706 102.663,176.432 102.665 C 192.131 102.667,190.568 102.995,194.449 98.888 L 196.647 96.561 195.532 96.822 C 193.695 97.252,171.957 97.210,170.083 96.772 C 167.690 96.213,166.029 95.176,163.274 92.523 C 162.031 91.326,161.953 91.278,161.729 91.584 C 161.504 91.891,161.469 91.893,160.955 91.625 C 159.681 90.962,159.576 91.005,159.172 92.361 M202.911 91.676 C 202.851 91.773,202.845 92.026,202.899 92.238 C 202.979 92.557,202.736 92.880,201.468 94.135 L 199.942 95.648 200.154 96.365 C 201.007 99.247,202.012 100.820,203.589 101.745 C 205.197 102.687,204.778 102.663,219.516 102.665 C 236.273 102.667,234.379 103.034,238.250 99.031 C 240.588 96.613,240.743 96.416,240.118 96.653 C 238.369 97.318,214.450 97.381,211.983 96.727 C 209.933 96.183,208.224 95.129,205.878 92.959 C 204.659 91.833,203.203 91.203,202.911 91.676 " stroke="none" fill="#1f1a94" fill-rule="evenodd"></path><path id="path1" d="M132.297 10.790 C 132.782 10.824,133.532 10.823,133.964 10.789 C 134.396 10.755,134.000 10.727,133.083 10.728 C 132.167 10.728,131.813 10.756,132.297 10.790 M350.792 10.790 C 351.273 10.823,352.060 10.823,352.542 10.790 C 353.023 10.756,352.629 10.728,351.667 10.728 C 350.704 10.728,350.310 10.756,350.792 10.790 M59.875 12.282 C 60.035 12.323,60.298 12.323,60.458 12.282 C 60.619 12.240,60.487 12.205,60.167 12.205 C 59.846 12.205,59.715 12.240,59.875 12.282 M216.542 12.282 C 216.702 12.323,216.965 12.323,217.125 12.282 C 217.285 12.240,217.154 12.205,216.833 12.205 C 216.512 12.205,216.381 12.240,216.542 12.282 M129.250 12.938 C 112.324 14.711,98.675 26.162,93.913 42.583 C 93.519 43.944,92.904 46.948,92.805 48.000 L 92.750 48.583 104.066 48.583 L 115.381 48.583 115.673 47.167 C 118.003 35.872,129.101 29.458,138.157 34.172 C 142.371 36.366,144.544 40.443,144.572 46.208 L 144.583 48.667 155.862 48.667 L 167.140 48.667 167.267 47.542 C 169.191 30.517,157.563 16.110,139.583 13.241 C 137.974 12.984,130.813 12.774,129.250 12.938 M347.667 12.930 C 339.140 13.886,333.271 16.151,328.294 20.404 C 319.650 27.791,317.885 40.759,324.555 47.875 L 325.297 48.667 347.690 48.659 L 370.083 48.651 368.917 47.561 C 366.036 44.871,361.610 42.544,354.080 39.760 C 344.748 36.310,343.832 35.782,343.834 33.850 C 343.839 28.223,358.432 30.449,368.054 37.544 C 369.165 38.364,369.198 38.376,369.490 38.066 C 369.738 37.804,375.205 31.262,380.480 24.917 C 381.166 24.092,381.826 23.298,381.947 23.153 C 382.524 22.463,375.565 18.165,370.912 16.335 C 364.235 13.711,354.035 12.217,347.667 12.930 M31.263 19.612 C 30.451 22.621,29.545 25.983,29.249 27.083 C 28.954 28.183,27.581 33.283,26.199 38.417 C 24.818 43.550,23.637 47.956,23.575 48.208 L 23.464 48.667 53.645 48.667 L 83.827 48.667 84.170 47.994 C 86.832 42.775,87.621 34.776,86.007 29.356 C 83.854 22.126,77.848 17.264,68.667 15.318 C 63.932 14.315,63.467 14.291,47.494 14.213 L 32.739 14.140 31.263 19.612 M185.772 14.447 C 185.722 14.614,184.621 18.688,183.327 23.500 C 182.032 28.313,180.839 32.737,180.675 33.333 C 179.347 38.177,176.666 48.291,176.666 48.458 C 176.667 48.624,183.128 48.667,208.415 48.667 L 240.162 48.667 240.596 47.979 C 243.981 42.618,244.530 33.085,241.811 26.886 C 238.722 19.842,232.504 16.204,220.750 14.564 C 217.514 14.112,185.904 14.006,185.772 14.447 M255.500 14.265 C 255.500 14.319,254.418 18.388,253.095 23.307 C 251.771 28.226,250.638 32.456,250.576 32.708 L 250.464 33.167 260.555 33.167 C 266.821 33.167,270.684 33.227,270.746 33.327 C 270.800 33.415,270.461 34.896,269.992 36.618 C 269.522 38.341,268.995 40.294,268.819 40.958 C 268.371 42.655,267.892 44.448,267.485 45.958 C 267.024 47.664,266.842 48.390,266.837 48.542 C 266.835 48.610,271.915 48.666,278.125 48.665 L 289.417 48.664 290.126 46.040 C 290.516 44.597,291.329 41.579,291.932 39.333 C 292.536 37.087,293.158 34.800,293.316 34.250 L 293.602 33.250 303.843 33.207 L 314.085 33.164 314.707 30.790 C 316.309 24.687,318.706 15.671,318.916 14.958 L 319.149 14.167 287.324 14.167 C 269.821 14.167,255.500 14.211,255.500 14.265 M160.000 21.083 C 160.591 21.679,161.111 22.167,161.157 22.167 C 161.203 22.167,160.757 21.679,160.167 21.083 C 159.576 20.487,159.055 20.000,159.010 20.000 C 158.964 20.000,159.409 20.487,160.000 21.083 M58.722 32.560 C 63.457 33.906,65.261 38.051,63.096 42.612 C 61.968 44.989,59.418 46.812,56.000 47.683 C 54.377 48.097,46.333 48.381,46.333 48.024 C 46.333 47.927,46.707 46.438,47.163 44.716 C 48.969 37.895,49.969 34.056,50.086 33.500 C 50.154 33.179,50.276 32.741,50.357 32.525 L 50.504 32.134 54.127 32.209 C 56.814 32.264,58.001 32.355,58.722 32.560 M348.792 32.787 C 349.090 32.824,349.577 32.824,349.875 32.787 C 350.173 32.750,349.929 32.720,349.333 32.720 C 348.738 32.720,348.494 32.750,348.792 32.787 M215.833 33.486 C 223.290 35.682,221.577 44.440,213.250 46.697 C 211.672 47.124,199.667 47.395,199.667 47.003 C 199.667 46.727,203.140 33.825,203.340 33.358 L 203.508 32.967 209.046 33.042 C 214.140 33.112,214.683 33.148,215.833 33.486 M131.294 34.618 C 131.501 34.658,131.801 34.656,131.960 34.615 C 132.120 34.573,131.950 34.540,131.583 34.542 C 131.217 34.544,131.086 34.578,131.294 34.618 M245.556 35.833 C 245.556 36.521,245.585 36.802,245.621 36.458 C 245.657 36.115,245.657 35.552,245.621 35.208 C 245.585 34.865,245.556 35.146,245.556 35.833 M253.000 35.288 C 261.357 35.403,268.333 35.405,268.333 35.292 C 268.333 35.223,264.152 35.184,259.042 35.205 C 253.931 35.225,251.213 35.263,253.000 35.288 M295.109 35.292 C 295.039 35.405,302.035 35.403,311.083 35.288 C 313.008 35.263,310.219 35.226,304.885 35.205 C 299.551 35.184,295.152 35.223,295.109 35.292 M211.458 35.618 C 211.665 35.657,212.002 35.657,212.208 35.618 C 212.415 35.578,212.246 35.545,211.833 35.545 C 211.421 35.545,211.252 35.578,211.458 35.618 M88.705 38.667 C 88.705 38.987,88.740 39.119,88.782 38.958 C 88.823 38.798,88.823 38.535,88.782 38.375 C 88.740 38.215,88.705 38.346,88.705 38.667 M169.205 40.500 C 169.205 40.821,169.240 40.952,169.282 40.792 C 169.323 40.631,169.323 40.369,169.282 40.208 C 169.240 40.048,169.205 40.179,169.205 40.500 M169.394 44.083 C 169.395 45.000,169.423 45.354,169.456 44.869 C 169.490 44.385,169.490 43.635,169.456 43.203 C 169.421 42.770,169.394 43.167,169.394 44.083 M59.991 43.458 L 59.417 44.083 60.042 43.509 C 60.385 43.193,60.667 42.912,60.667 42.884 C 60.667 42.757,60.526 42.877,59.991 43.458 M204.051 45.291 C 205.133 45.320,206.858 45.320,207.884 45.291 C 208.910 45.262,208.025 45.238,205.917 45.238 C 203.808 45.238,202.969 45.262,204.051 45.291 M49.631 46.290 C 50.115 46.324,50.865 46.323,51.297 46.289 C 51.730 46.255,51.333 46.227,50.417 46.228 C 49.500 46.228,49.146 46.256,49.631 46.290 M169.209 47.750 C 169.211 48.117,169.245 48.247,169.285 48.040 C 169.324 47.832,169.323 47.532,169.281 47.373 C 169.239 47.214,169.207 47.383,169.209 47.750 M323.417 49.667 C 323.961 50.217,324.444 50.667,324.490 50.667 C 324.535 50.667,324.128 50.217,323.583 49.667 C 323.039 49.117,322.556 48.667,322.510 48.667 C 322.465 48.667,322.872 49.117,323.417 49.667 M90.545 50.167 C 90.545 50.579,90.578 50.748,90.618 50.542 C 90.657 50.335,90.657 49.998,90.618 49.792 C 90.578 49.585,90.545 49.754,90.545 50.167 M117.205 50.333 C 117.205 50.654,117.240 50.785,117.282 50.625 C 117.323 50.465,117.323 50.202,117.282 50.042 C 117.240 49.881,117.205 50.012,117.205 50.333 M89.894 53.250 C 89.895 54.167,89.923 54.520,89.956 54.036 C 89.990 53.552,89.990 52.802,89.956 52.369 C 89.921 51.937,89.894 52.333,89.894 53.250 M90.390 53.250 C 90.391 53.983,90.420 54.263,90.456 53.871 C 90.491 53.479,90.490 52.879,90.454 52.537 C 90.419 52.196,90.390 52.517,90.390 53.250 M82.073 54.708 L 81.583 55.250 82.125 54.760 C 82.423 54.491,82.667 54.248,82.667 54.219 C 82.667 54.090,82.529 54.203,82.073 54.708 M90.542 56.083 C 90.544 56.450,90.578 56.580,90.618 56.373 C 90.658 56.166,90.656 55.866,90.615 55.706 C 90.573 55.547,90.540 55.717,90.542 56.083 M376.209 58.083 C 376.211 58.450,376.245 58.580,376.285 58.373 C 376.324 58.166,376.323 57.866,376.281 57.706 C 376.239 57.547,376.207 57.717,376.209 58.083 M137.411 58.708 L 136.417 59.750 137.458 58.755 C 138.031 58.208,138.500 57.739,138.500 57.714 C 138.500 57.590,138.336 57.741,137.411 58.708 M120.250 59.667 C 120.701 60.125,121.108 60.500,121.154 60.500 C 121.200 60.500,120.868 60.125,120.417 59.667 C 119.965 59.208,119.558 58.833,119.513 58.833 C 119.467 58.833,119.799 59.208,120.250 59.667 M376.212 61.833 C 376.212 62.246,376.245 62.415,376.284 62.208 C 376.324 62.002,376.324 61.665,376.284 61.458 C 376.245 61.252,376.212 61.421,376.212 61.833 M127.795 62.121 C 128.094 62.158,128.544 62.157,128.795 62.119 C 129.045 62.081,128.800 62.051,128.250 62.052 C 127.700 62.053,127.495 62.084,127.795 62.121 M348.526 62.250 C 348.679 62.433,348.837 62.771,348.879 63.000 L 348.955 63.417 348.977 62.984 C 348.991 62.720,348.854 62.428,348.625 62.234 C 348.253 61.919,348.252 61.919,348.526 62.250 M342.375 64.282 C 342.535 64.323,342.798 64.323,342.958 64.282 C 343.119 64.240,342.988 64.205,342.667 64.205 C 342.346 64.205,342.215 64.240,342.375 64.282 M344.547 64.456 C 344.985 64.490,345.660 64.490,346.047 64.455 C 346.434 64.420,346.075 64.392,345.250 64.392 C 344.425 64.393,344.109 64.422,344.547 64.456 M197.333 65.274 C 198.728 65.397,200.296 65.407,200.225 65.292 C 200.182 65.223,199.383 65.179,198.448 65.195 C 197.514 65.210,197.012 65.246,197.333 65.274 M55.792 66.118 C 55.998 66.157,56.335 66.157,56.542 66.118 C 56.748 66.078,56.579 66.045,56.167 66.045 C 55.754 66.045,55.585 66.078,55.792 66.118 M43.442 66.292 C 43.400 66.360,45.026 66.398,47.057 66.374 C 53.943 66.295,54.601 66.238,49.052 66.203 C 46.009 66.183,43.485 66.223,43.442 66.292 M99.326 76.542 C 99.735 76.977,100.091 77.333,100.118 77.333 C 100.243 77.333,100.111 77.184,99.375 76.493 L 98.583 75.750 99.326 76.542 M369.078 77.375 L 368.083 78.417 369.125 77.422 C 369.698 76.875,370.167 76.406,370.167 76.380 C 370.167 76.257,370.002 76.407,369.078 77.375 M337.375 86.282 C 337.535 86.323,337.798 86.323,337.958 86.282 C 338.119 86.240,337.987 86.205,337.667 86.205 C 337.346 86.205,337.215 86.240,337.375 86.282 M348.042 86.282 C 348.202 86.323,348.465 86.323,348.625 86.282 C 348.785 86.240,348.654 86.205,348.333 86.205 C 348.012 86.205,347.881 86.240,348.042 86.282 M123.211 86.453 C 123.464 86.491,123.839 86.490,124.044 86.451 C 124.249 86.411,124.042 86.380,123.583 86.381 C 123.125 86.382,122.957 86.415,123.211 86.453 M129.458 86.451 C 129.665 86.491,130.002 86.491,130.208 86.451 C 130.415 86.411,130.246 86.379,129.833 86.379 C 129.421 86.379,129.252 86.411,129.458 86.451 M339.211 86.453 C 339.464 86.491,339.839 86.490,340.044 86.451 C 340.249 86.411,340.042 86.380,339.583 86.381 C 339.125 86.382,338.957 86.415,339.211 86.453 M346.125 86.451 C 346.331 86.491,346.669 86.491,346.875 86.451 C 347.081 86.411,346.912 86.379,346.500 86.379 C 346.087 86.379,345.919 86.411,346.125 86.451 " stroke="none" fill="#fbc291" fill-rule="evenodd"></path><path id="path2" d="M128.333 11.025 C 107.175 13.223,90.473 31.867,90.506 53.250 C 90.512 56.874,90.819 58.667,91.434 58.667 C 91.742 58.667,91.833 58.756,91.833 59.057 C 91.833 59.475,92.337 61.554,92.768 62.917 C 96.327 74.160,105.770 82.250,118.250 84.748 C 137.686 88.638,156.551 78.904,165.001 60.625 C 165.742 59.022,165.971 58.667,166.261 58.667 C 167.082 58.667,168.644 52.992,169.161 48.132 C 171.586 25.337,153.017 8.460,128.333 11.025 M346.500 11.027 C 330.214 12.558,318.587 23.319,318.618 36.833 C 318.639 46.293,323.159 51.670,335.250 56.617 C 338.673 58.017,340.753 58.667,341.813 58.667 C 342.571 58.667,343.216 58.793,343.987 59.092 C 349.459 61.215,350.949 62.659,349.288 64.225 C 346.378 66.969,335.732 64.586,327.750 59.404 L 326.750 58.755 327.333 58.669 L 327.917 58.582 327.083 58.015 C 326.625 57.702,325.575 56.909,324.750 56.251 C 321.941 54.013,321.829 54.024,319.598 56.736 C 318.031 58.642,318.017 58.667,318.500 58.667 C 319.042 58.667,319.053 58.653,313.417 65.417 C 310.438 68.992,308.001 72.040,308.001 72.190 C 307.999 72.774,311.648 75.735,314.881 77.772 C 328.775 86.530,348.949 88.121,361.833 81.477 C 370.401 77.058,375.500 68.970,375.500 59.796 C 375.500 58.752,375.527 58.667,375.858 58.667 C 376.202 58.667,376.212 58.619,376.107 57.383 C 375.741 53.051,373.550 48.925,369.974 45.831 C 366.528 42.849,362.562 40.839,353.250 37.353 C 345.869 34.591,344.975 34.070,346.214 33.258 C 349.435 31.148,360.373 34.281,367.083 39.237 C 369.516 41.035,369.594 41.013,372.311 37.770 C 373.396 36.476,375.104 34.442,376.107 33.250 C 385.748 21.796,385.248 22.786,382.477 20.629 C 373.114 13.344,359.765 9.781,346.500 11.027 M138.975 12.085 C 153.468 14.120,164.290 23.193,167.399 35.918 C 168.083 38.719,168.091 38.833,167.581 38.833 L 167.147 38.833 167.282 40.625 C 167.431 42.603,167.414 46.009,167.247 47.625 L 167.140 48.667 155.822 48.667 L 144.504 48.667 144.609 47.189 C 144.877 43.413,143.605 38.833,142.288 38.833 C 141.866 38.833,141.675 38.727,141.464 38.375 C 137.812 32.284,127.522 32.126,121.470 38.067 C 120.866 38.660,120.564 38.835,120.136 38.840 C 118.865 38.857,116.457 43.347,115.672 47.167 L 115.381 48.583 104.066 48.583 L 92.750 48.583 92.805 48.000 C 92.973 46.215,93.753 42.911,94.651 40.176 C 95.088 38.844,95.087 38.833,94.583 38.833 C 94.062 38.833,94.044 38.961,94.842 37.041 C 101.970 19.892,120.388 9.477,138.975 12.085 M358.807 12.168 C 365.135 13.013,370.448 14.637,375.500 17.270 C 379.000 19.095,383.333 22.167,383.333 22.824 C 383.333 23.076,380.089 27.134,377.730 29.833 C 377.530 30.063,376.515 31.265,375.475 32.506 C 374.434 33.747,372.805 35.678,371.854 36.798 L 370.124 38.833 369.221 38.833 C 368.377 38.833,368.195 38.752,366.451 37.599 C 362.421 34.937,358.800 33.357,354.333 32.312 C 351.951 31.755,347.100 31.744,345.984 32.294 C 344.418 33.066,344.439 34.431,346.033 35.437 C 346.649 35.827,351.409 37.832,351.717 37.833 C 351.791 37.833,352.169 37.978,352.557 38.154 C 352.944 38.331,353.484 38.537,353.756 38.613 C 354.171 38.728,354.064 38.763,353.083 38.833 L 351.917 38.917 354.500 39.896 C 361.908 42.706,366.110 44.940,368.917 47.561 L 370.083 48.651 347.690 48.659 L 325.297 48.667 324.555 47.875 C 322.462 45.641,320.667 41.704,320.667 39.345 C 320.667 38.892,320.611 38.833,320.186 38.833 C 319.607 38.833,319.504 38.556,319.505 37.000 C 319.515 20.182,336.837 9.237,358.807 12.168 M31.667 12.382 C 31.438 12.498,31.155 12.791,31.039 13.033 C 30.853 13.422,23.341 41.297,19.399 56.228 C 18.733 58.751,18.741 58.667,19.167 58.667 C 19.623 58.667,19.853 57.682,16.226 71.279 C 13.809 80.341,12.996 83.622,13.119 83.818 C 13.344 84.175,37.339 84.314,37.628 83.959 C 37.722 83.844,38.864 79.779,40.166 74.926 C 41.468 70.073,42.598 65.930,42.679 65.718 L 42.825 65.333 48.454 65.332 C 56.878 65.329,60.228 65.010,65.083 63.749 C 68.589 62.839,73.363 60.867,75.075 59.623 C 76.049 58.915,76.590 58.667,77.164 58.667 C 77.711 58.667,78.016 58.504,79.091 57.639 C 89.253 49.464,92.038 32.166,84.751 22.472 C 80.109 16.297,72.626 13.079,61.167 12.331 C 57.313 12.080,32.179 12.123,31.667 12.382 M184.710 12.417 C 184.155 12.813,184.079 13.016,183.095 16.698 C 182.597 18.560,180.903 24.883,179.330 30.750 C 177.757 36.617,176.370 41.792,176.248 42.250 C 176.125 42.708,175.861 43.683,175.661 44.417 C 175.461 45.150,175.052 46.688,174.752 47.833 C 174.452 48.979,174.005 50.667,173.758 51.583 C 173.253 53.461,172.876 54.878,172.284 57.125 L 171.878 58.667 172.284 58.667 C 172.592 58.667,172.668 58.737,172.603 58.958 C 172.555 59.119,172.245 60.300,171.914 61.583 C 171.582 62.867,171.166 64.460,170.989 65.125 C 170.811 65.790,170.522 66.877,170.346 67.542 C 169.961 68.993,168.485 74.553,167.989 76.417 C 167.212 79.342,166.954 80.295,166.662 81.333 C 165.769 84.503,164.350 84.167,178.607 84.167 L 190.674 84.167 190.834 83.792 C 191.011 83.375,191.995 79.816,193.908 72.667 C 194.608 70.054,195.288 67.542,195.420 67.083 C 195.551 66.625,195.779 65.819,195.925 65.292 L 196.190 64.333 198.496 64.333 L 200.802 64.333 201.054 65.042 C 201.192 65.431,201.765 66.912,202.327 68.333 C 202.890 69.754,203.992 72.567,204.777 74.583 C 207.612 81.866,208.368 83.754,208.537 83.959 C 208.876 84.372,234.488 84.168,234.759 83.750 C 234.950 83.455,234.619 82.560,231.897 76.000 C 226.986 64.163,225.623 60.820,225.689 60.771 C 225.722 60.745,226.237 60.554,226.833 60.345 C 227.429 60.136,228.479 59.701,229.167 59.378 C 229.993 58.990,230.784 58.754,231.500 58.683 C 233.855 58.448,238.458 54.681,241.201 50.744 C 246.512 43.121,247.011 31.266,242.343 23.613 C 238.633 17.529,232.213 14.158,221.441 12.637 C 217.962 12.146,185.363 11.951,184.710 12.417 M254.249 12.542 C 253.782 12.944,253.898 12.544,249.900 27.546 C 248.478 32.883,248.330 33.569,248.497 34.074 C 248.872 35.210,248.460 35.167,258.922 35.167 C 267.829 35.167,268.351 35.183,268.268 35.458 C 267.924 36.601,262.167 58.317,262.167 58.471 C 262.167 58.579,262.317 58.667,262.500 58.667 C 262.877 58.667,262.883 58.695,262.674 59.500 C 262.390 60.596,261.691 63.248,261.357 64.500 C 261.173 65.188,260.765 66.725,260.448 67.917 C 260.132 69.108,259.715 70.665,259.520 71.375 C 259.326 72.085,259.022 73.210,258.844 73.875 C 258.667 74.540,258.322 75.833,258.077 76.750 C 257.832 77.667,257.489 78.942,257.314 79.583 C 256.390 82.972,256.264 83.633,256.489 83.904 C 256.843 84.330,280.750 84.302,280.976 83.875 C 281.061 83.715,282.146 79.833,283.388 75.250 C 284.630 70.667,285.996 65.642,286.422 64.083 C 286.849 62.525,287.349 60.673,287.534 59.968 C 287.838 58.809,287.912 58.680,288.308 58.634 C 288.695 58.589,288.782 58.455,289.045 57.500 C 289.379 56.290,294.394 37.758,294.768 36.353 C 294.900 35.860,295.047 35.392,295.097 35.312 C 295.146 35.232,299.566 35.167,304.919 35.167 C 314.887 35.167,315.225 35.146,315.621 34.511 C 316.006 33.895,321.167 14.572,321.167 13.748 C 321.167 13.299,321.040 13.014,320.679 12.654 L 320.192 12.167 287.439 12.167 L 254.685 12.167 254.249 12.542 M58.735 13.169 C 78.267 13.958,87.823 21.415,87.832 35.875 L 87.833 38.833 87.341 38.833 C 86.820 38.833,86.503 39.468,86.501 40.517 C 86.498 41.672,85.092 46.186,84.175 47.984 L 83.827 48.667 53.663 48.667 C 37.073 48.667,23.500 48.618,23.500 48.558 C 23.500 48.499,24.018 46.493,24.650 44.100 C 26.189 38.280,26.092 38.833,25.568 38.833 C 25.081 38.833,25.083 38.517,25.581 36.833 C 25.703 36.421,27.096 31.208,28.677 25.250 C 30.258 19.292,31.619 14.169,31.703 13.866 C 31.790 13.547,32.008 13.253,32.219 13.168 C 32.715 12.968,53.779 12.969,58.735 13.169 M215.583 13.171 C 234.990 14.005,244.116 20.971,244.454 35.208 L 244.540 38.833 244.020 38.833 C 243.734 38.833,243.500 38.863,243.500 38.898 C 243.500 40.656,241.735 46.175,240.596 47.979 L 240.162 48.667 208.415 48.667 C 183.127 48.667,176.667 48.624,176.667 48.458 C 176.667 48.292,178.764 40.255,179.102 39.125 C 179.172 38.890,179.086 38.833,178.660 38.833 C 178.286 38.833,178.156 38.768,178.217 38.610 C 178.297 38.400,178.933 36.026,179.898 32.333 C 180.125 31.462,181.283 27.113,182.470 22.667 C 183.657 18.221,184.681 14.340,184.744 14.042 C 184.979 12.944,184.227 13.000,198.662 13.003 C 205.860 13.004,213.475 13.080,215.583 13.171 M320.007 13.305 L 320.384 13.611 318.182 21.847 C 316.971 26.377,315.881 30.421,315.760 30.833 C 315.639 31.246,315.405 32.071,315.241 32.667 C 314.733 34.510,315.883 34.333,304.386 34.333 C 296.481 34.333,294.309 34.378,294.258 34.542 C 294.222 34.656,293.943 35.669,293.638 36.791 C 293.086 38.824,293.081 38.833,292.583 38.835 C 292.025 38.837,292.206 38.308,290.146 45.957 L 289.417 48.664 278.112 48.665 L 266.807 48.667 266.919 48.125 C 266.980 47.827,267.167 47.096,267.334 46.500 C 267.501 45.904,267.804 44.779,268.007 44.000 C 268.211 43.221,268.478 42.246,268.600 41.833 C 268.722 41.421,268.903 40.708,269.001 40.250 C 269.099 39.792,269.219 39.285,269.267 39.125 C 269.336 38.900,269.258 38.833,268.928 38.833 C 268.378 38.833,268.382 38.693,269.000 36.417 C 269.274 35.408,269.498 34.527,269.499 34.458 C 269.500 34.390,265.100 34.333,259.721 34.333 C 249.335 34.333,249.333 34.333,249.333 33.572 C 249.333 32.829,254.682 13.401,254.938 13.214 C 255.479 12.818,319.516 12.908,320.007 13.305 M50.488 35.940 L 49.738 38.750 49.202 38.802 C 48.908 38.831,48.667 38.950,48.667 39.066 C 48.667 39.182,48.522 39.759,48.346 40.347 C 47.901 41.829,46.333 47.809,46.333 48.024 C 46.333 48.381,54.377 48.097,56.000 47.683 C 60.377 46.567,63.267 43.883,63.836 40.406 C 64.082 38.906,64.067 38.833,63.523 38.833 C 63.076 38.833,63.040 38.782,62.949 38.009 C 62.562 34.746,60.090 33.342,54.494 33.207 L 51.237 33.129 50.488 35.940 M204.026 34.542 C 203.935 34.840,203.660 35.833,203.416 36.750 C 203.171 37.667,202.942 38.510,202.907 38.625 C 202.872 38.740,202.627 38.833,202.362 38.833 C 201.918 38.833,201.857 38.910,201.601 39.792 C 200.974 41.945,199.667 46.818,199.667 47.000 C 199.667 47.395,211.660 47.127,213.250 46.697 C 217.209 45.624,219.744 43.328,220.360 40.257 C 220.580 39.162,220.479 38.833,219.922 38.833 C 219.587 38.833,219.500 38.750,219.500 38.430 C 219.500 35.266,216.433 34.006,208.721 34.002 L 204.193 34.000 204.026 34.542 M57.577 34.346 C 60.603 34.906,61.919 36.317,61.914 39.000 C 61.907 42.489,59.642 44.801,55.238 45.815 C 53.438 46.229,48.833 46.502,48.833 46.195 C 48.833 46.090,49.396 43.885,50.083 41.294 C 50.771 38.703,51.450 36.133,51.593 35.583 C 51.736 35.033,51.883 34.490,51.921 34.375 C 52.009 34.108,56.171 34.086,57.577 34.346 M134.523 34.927 C 143.456 36.765,145.530 49.008,138.392 57.772 C 137.680 58.645,137.673 58.667,138.081 58.667 C 138.712 58.667,138.600 58.884,137.458 59.882 C 132.988 63.786,126.974 64.637,122.136 62.049 C 120.222 61.026,117.950 58.667,118.878 58.667 L 119.295 58.667 118.726 57.595 C 114.350 49.355,119.873 36.883,128.762 34.931 C 130.849 34.472,132.309 34.471,134.523 34.927 M214.554 35.239 C 217.294 35.763,218.500 36.950,218.500 39.120 C 218.499 41.993,216.087 44.100,211.750 45.016 C 210.732 45.231,202.167 45.427,202.167 45.235 C 202.167 45.160,202.779 42.826,203.528 40.049 L 204.890 35.000 209.097 35.000 C 212.060 35.000,213.674 35.071,214.554 35.239 " stroke="none" fill="#fc1d63" fill-rule="evenodd"></path><path id="path3" d="M127.167 1.010 C 122.886 1.405,115.730 3.117,112.891 4.425 C 112.603 4.558,112.311 4.667,112.243 4.667 C 111.883 4.667,106.340 7.421,105.144 8.194 C 104.600 8.546,104.122 8.833,104.081 8.833 C 103.534 8.833,97.243 13.782,95.018 15.963 C 93.917 17.042,93.546 16.900,91.016 14.436 C 86.764 10.295,83.530 8.051,79.083 6.158 C 78.625 5.963,78.100 5.738,77.917 5.657 C 77.228 5.356,73.585 4.233,72.833 4.090 C 72.512 4.029,72.063 3.910,71.833 3.826 C 70.678 3.400,64.904 2.598,61.000 2.322 C 55.959 1.964,30.646 2.217,29.000 2.641 C 23.597 4.033,20.762 7.311,19.104 14.083 C 18.866 15.056,17.967 18.391,17.307 20.750 C 17.128 21.392,16.878 22.329,16.752 22.833 C 16.625 23.337,16.060 25.438,15.496 27.500 C 14.932 29.563,14.334 31.775,14.167 32.417 C 14.000 33.058,13.698 34.183,13.497 34.917 C 13.295 35.650,12.992 36.775,12.823 37.417 C 12.655 38.058,12.373 39.108,12.198 39.750 C 12.023 40.392,11.610 41.929,11.280 43.167 C 10.949 44.404,10.417 46.392,10.096 47.583 C 9.490 49.838,8.358 54.069,7.823 56.083 C 7.652 56.725,7.238 58.262,6.903 59.500 C 6.568 60.737,6.006 62.837,5.654 64.167 C 5.028 66.528,4.111 69.914,3.464 72.250 C 2.395 76.109,1.347 80.394,1.140 81.750 C 0.730 84.443,1.419 88.709,2.505 90.202 C 2.686 90.450,2.833 90.724,2.833 90.811 C 2.833 90.942,4.185 92.722,4.496 93.000 C 4.547 93.046,4.789 93.327,5.033 93.625 C 5.406 94.078,5.491 94.119,5.561 93.875 C 6.731 89.788,6.694 89.838,7.678 91.014 C 8.311 91.769,8.406 91.828,8.552 91.556 C 8.642 91.388,8.740 91.221,8.769 91.186 C 8.799 91.151,9.358 91.656,10.011 92.310 C 13.333 95.632,15.111 96.610,18.562 97.013 C 21.089 97.308,41.326 97.128,42.549 96.799 L 43.515 96.540 43.223 96.895 C 43.063 97.090,42.029 98.169,40.926 99.292 L 38.922 101.333 40.387 101.333 C 47.574 101.333,51.737 97.981,53.837 90.500 C 54.004 89.904,54.263 89.004,54.414 88.500 C 54.564 87.996,54.789 87.122,54.914 86.558 C 55.040 85.994,55.260 85.185,55.405 84.760 C 55.819 83.540,55.869 83.577,53.917 83.636 C 51.875 83.697,51.929 83.766,52.575 81.921 C 52.980 80.765,52.967 80.639,52.417 80.447 C 52.159 80.357,53.123 79.198,53.707 78.896 C 54.650 78.408,55.208 78.329,58.833 78.171 C 66.565 77.833,72.688 76.452,79.083 73.602 C 80.355 73.035,79.867 73.468,77.958 74.599 C 77.248 75.020,76.667 75.393,76.667 75.426 C 76.667 75.486,79.179 74.440,79.560 74.222 C 80.147 73.886,78.783 75.102,77.696 75.884 C 74.452 78.218,69.538 80.650,66.358 81.496 C 64.503 81.989,67.178 81.779,69.500 81.249 C 70.096 81.113,71.258 80.847,72.083 80.657 C 73.548 80.319,77.585 79.059,77.917 78.836 C 78.008 78.775,78.458 78.589,78.917 78.424 C 79.375 78.258,80.688 77.673,81.833 77.123 C 82.979 76.573,84.123 76.121,84.375 76.117 C 84.627 76.114,84.833 76.092,84.833 76.069 C 84.833 76.045,84.679 75.378,84.491 74.585 C 83.985 72.453,84.074 71.793,84.896 71.591 C 85.861 71.352,86.554 71.817,87.625 73.421 C 88.496 74.726,88.638 74.820,88.347 73.900 C 87.951 72.650,87.962 72.370,88.378 73.083 C 91.486 78.412,99.509 86.977,104.770 90.583 C 118.424 99.943,137.725 101.123,152.648 93.509 C 153.864 92.889,153.259 93.407,151.583 94.421 C 149.590 95.627,149.661 95.761,151.764 94.764 C 153.732 93.832,153.821 93.859,152.372 94.951 C 148.043 98.211,141.243 101.578,137.617 102.255 C 136.518 102.460,137.088 102.538,138.279 102.345 C 140.063 102.056,142.812 101.542,144.000 101.276 C 149.021 100.150,158.035 96.249,158.375 95.056 C 158.594 94.287,158.780 93.655,159.169 92.361 C 159.577 91.005,159.681 90.962,160.955 91.625 C 161.469 91.893,161.504 91.891,161.729 91.584 C 161.953 91.278,162.031 91.326,163.274 92.523 C 166.029 95.176,167.690 96.213,170.083 96.772 C 171.958 97.210,193.695 97.252,195.534 96.822 L 196.651 96.560 194.391 98.947 L 192.131 101.333 193.607 101.332 C 196.268 101.330,199.456 100.549,200.974 99.528 C 201.155 99.407,201.074 99.021,200.557 97.526 L 199.917 95.675 201.451 94.154 C 202.833 92.784,202.975 92.585,202.889 92.152 C 202.676 91.087,204.254 91.491,205.801 92.898 C 208.321 95.190,209.919 96.180,211.983 96.727 C 214.450 97.381,238.369 97.318,240.118 96.653 C 240.743 96.416,240.588 96.615,238.271 99.021 L 236.124 101.250 237.354 101.301 C 242.273 101.506,248.258 98.434,248.547 95.557 C 248.642 94.605,248.839 93.814,249.517 91.647 L 250.019 90.044 250.846 90.897 C 251.600 91.676,251.691 91.725,251.893 91.462 C 252.094 91.201,252.251 91.306,253.599 92.598 C 256.322 95.209,257.836 96.180,260.083 96.757 C 262.528 97.385,284.607 97.291,286.304 96.646 C 287.079 96.351,286.767 96.742,283.772 99.810 L 282.250 101.370 284.417 101.280 C 290.556 101.025,294.906 97.892,296.491 92.583 C 296.600 92.217,296.750 91.767,296.823 91.583 C 297.006 91.125,297.664 88.780,297.922 87.667 C 298.039 87.162,298.395 85.850,298.713 84.750 L 299.290 82.750 299.909 82.739 C 300.440 82.729,300.566 82.648,300.796 82.174 C 301.398 80.931,302.588 79.878,302.985 80.237 C 303.332 80.550,303.343 80.551,303.570 80.240 C 303.786 79.945,303.955 80.075,306.192 82.254 C 311.739 87.657,317.592 91.437,324.833 94.292 C 326.615 94.994,327.747 95.376,330.917 96.341 C 342.278 99.802,357.836 98.998,367.708 94.438 C 369.338 93.686,369.339 93.786,367.710 94.849 C 366.312 95.761,366.067 95.958,366.583 95.755 C 366.767 95.683,367.292 95.482,367.750 95.308 L 368.583 94.993 367.833 95.661 C 365.293 97.923,360.124 100.693,356.333 101.821 C 354.659 102.320,354.693 102.306,355.167 102.318 C 355.537 102.327,358.644 101.796,360.917 101.334 C 363.492 100.811,369.172 98.791,371.167 97.689 C 371.304 97.613,371.941 97.268,372.581 96.923 C 377.381 94.335,382.409 89.863,385.073 85.814 C 385.518 85.137,386.029 84.370,386.209 84.108 C 386.552 83.608,388.073 80.608,388.629 79.333 C 392.184 71.190,392.037 59.238,388.297 52.205 C 388.018 51.680,387.574 50.846,387.311 50.352 C 386.517 48.858,386.673 48.252,388.370 46.250 C 388.914 45.608,389.573 44.821,389.834 44.500 C 390.095 44.179,390.910 43.204,391.644 42.333 C 395.958 37.219,396.764 36.162,397.584 34.546 C 399.842 30.094,399.412 24.740,396.471 20.696 C 395.422 19.254,390.313 14.254,388.250 12.651 C 386.591 11.361,383.154 9.000,382.936 9.000 C 382.888 9.000,382.488 8.788,382.049 8.530 C 380.087 7.374,377.888 6.331,375.250 5.305 C 374.333 4.948,373.396 4.576,373.167 4.477 C 372.938 4.378,372.412 4.199,372.000 4.078 C 371.587 3.957,370.725 3.696,370.083 3.498 C 367.831 2.803,363.973 1.949,361.333 1.562 C 360.371 1.420,359.133 1.236,358.583 1.153 C 355.550 0.692,345.355 0.809,342.583 1.337 C 342.125 1.424,341.075 1.616,340.250 1.763 C 337.703 2.217,332.632 3.640,331.083 4.335 C 328.270 5.599,327.903 5.596,325.722 4.298 C 324.247 3.420,323.029 2.959,320.917 2.478 C 320.089 2.289,314.191 2.250,286.750 2.250 L 253.583 2.250 251.938 2.643 C 248.442 3.479,246.253 4.956,244.490 7.667 C 243.252 9.572,243.174 9.667,242.843 9.667 C 242.674 9.667,241.644 9.160,240.555 8.542 C 236.682 6.341,232.497 4.656,229.500 4.089 C 229.179 4.029,228.729 3.910,228.500 3.826 C 227.353 3.403,221.679 2.617,217.667 2.325 C 216.118 2.212,209.534 2.172,199.333 2.214 L 183.417 2.279 181.917 2.698 C 176.766 4.137,174.225 6.917,172.575 12.917 C 171.029 18.543,171.403 18.423,167.448 14.558 C 164.146 11.331,161.455 9.250,158.049 7.288 C 157.297 6.854,156.610 6.500,156.522 6.500 C 156.433 6.500,156.336 6.444,156.306 6.375 C 156.210 6.159,151.821 4.168,151.437 4.166 C 151.334 4.165,151.063 4.067,150.833 3.949 C 150.388 3.718,149.007 3.278,146.583 2.594 C 145.261 2.222,144.171 1.995,140.500 1.327 C 137.911 0.856,130.689 0.684,127.167 1.010 M137.833 8.347 C 143.062 8.906,148.018 10.380,152.667 12.760 C 160.018 16.524,169.747 26.278,173.354 33.500 C 173.825 34.442,174.180 34.982,174.230 34.833 C 174.330 34.542,177.200 23.885,178.585 18.667 C 180.469 11.568,180.668 11.132,182.500 10.100 L 183.417 9.583 200.917 9.583 C 220.212 9.583,220.180 9.582,225.500 10.669 C 233.388 12.280,237.098 14.294,243.124 20.236 C 245.162 22.247,246.859 23.860,246.893 23.821 C 246.927 23.782,247.611 21.275,248.414 18.250 C 250.219 11.445,250.457 10.960,252.497 9.954 L 253.250 9.583 286.833 9.583 L 320.417 9.583 321.167 9.978 C 321.579 10.196,322.973 11.417,324.264 12.693 L 326.610 15.013 328.097 14.075 C 342.965 4.690,367.618 6.462,383.132 18.031 C 385.480 19.781,391.040 25.342,391.517 26.417 C 392.523 28.684,392.028 30.285,389.318 33.520 C 377.346 47.813,377.171 48.021,376.765 48.353 C 376.445 48.614,376.479 48.669,377.926 50.235 C 382.378 55.051,384.266 60.262,383.939 66.833 C 382.925 87.257,362.402 99.197,336.417 94.483 C 325.068 92.424,315.821 87.565,307.276 79.171 C 301.895 73.886,301.758 72.586,306.042 67.487 C 307.165 66.150,309.771 63.043,311.833 60.581 C 318.367 52.784,318.195 52.976,319.042 52.539 L 319.834 52.131 319.003 51.087 C 317.764 49.530,316.854 47.954,316.064 46.000 L 315.358 44.250 308.692 44.206 L 302.027 44.163 301.855 44.706 C 301.760 45.005,300.700 48.925,299.498 53.417 C 298.297 57.908,297.167 62.108,296.988 62.750 C 296.612 64.097,293.036 77.394,290.915 85.333 C 289.095 92.144,288.850 92.623,286.667 93.652 L 285.750 94.083 273.167 94.083 C 261.256 94.083,260.534 94.066,259.667 93.768 C 258.438 93.345,252.600 87.661,251.877 86.184 C 251.018 84.428,251.033 84.361,258.744 56.083 C 260.254 50.546,261.833 44.572,261.833 44.398 C 261.833 44.222,260.956 44.168,257.507 44.130 L 253.180 44.083 253.078 45.000 C 251.960 55.092,246.305 63.218,237.124 67.924 C 236.277 68.358,235.560 68.733,235.531 68.756 C 235.481 68.797,240.008 79.757,242.310 85.167 C 244.196 89.599,243.612 92.231,240.417 93.700 L 239.583 94.083 226.583 94.134 C 209.890 94.199,211.922 94.618,207.445 90.189 C 204.022 86.802,204.022 86.802,202.745 83.455 C 202.276 82.225,201.885 81.416,201.818 81.538 C 201.754 81.655,201.168 83.737,200.514 86.167 C 198.938 92.029,198.370 93.039,196.196 93.846 C 195.363 94.155,171.954 94.289,170.419 93.993 C 168.889 93.699,168.640 93.514,165.273 90.189 C 162.071 87.027,161.339 86.056,161.335 84.968 C 161.332 84.258,161.161 84.303,159.840 85.361 C 143.749 98.251,120.206 98.929,104.833 86.946 C 103.437 85.858,95.954 78.464,94.599 76.833 C 91.768 73.428,89.338 69.006,88.164 65.127 L 87.773 63.837 86.678 64.881 C 79.499 71.731,69.914 74.945,56.132 75.124 L 50.348 75.199 50.101 76.058 C 49.966 76.530,49.023 80.029,48.007 83.833 C 46.024 91.253,45.802 91.857,44.695 92.841 C 43.245 94.130,43.801 94.083,29.750 94.083 C 14.383 94.083,16.529 94.546,12.238 90.307 C 8.632 86.745,7.747 85.345,8.084 83.733 C 8.318 82.620,8.719 80.973,8.914 80.333 C 9.039 79.921,9.744 77.333,10.481 74.583 C 11.217 71.833,12.755 66.096,13.899 61.833 C 15.043 57.571,18.387 45.083,21.331 34.083 C 24.275 23.083,26.793 13.708,26.928 13.250 C 27.423 11.565,28.827 10.122,30.417 9.666 C 31.522 9.350,61.672 9.541,64.167 9.880 C 71.520 10.881,76.200 12.414,80.443 15.213 C 84.327 17.774,91.064 24.631,93.227 28.224 L 93.790 29.159 94.673 27.871 C 104.210 13.956,120.666 6.512,137.833 8.347 M129.474 11.834 C 114.215 13.214,100.637 23.097,94.842 37.041 C 94.039 38.972,94.061 38.780,94.637 38.865 C 95.091 38.931,95.135 38.869,95.919 37.092 C 100.931 25.718,111.044 17.081,122.867 14.076 C 129.244 12.455,137.034 12.429,143.213 14.008 C 155.307 17.098,163.834 25.392,166.594 36.750 C 166.817 37.667,167.008 38.642,167.019 38.917 C 167.030 39.198,167.072 39.289,167.115 39.125 C 167.162 38.946,167.351 38.833,167.603 38.833 C 168.087 38.833,168.077 38.694,167.399 35.918 C 163.581 20.293,147.669 10.188,129.474 11.834 M347.750 11.832 C 330.926 13.276,319.513 23.446,319.505 37.000 C 319.504 38.524,319.612 38.834,320.144 38.833 L 320.583 38.832 320.595 36.541 C 320.646 26.386,328.036 17.786,339.583 14.442 C 348.947 11.730,361.058 12.462,370.912 16.335 C 375.565 18.165,382.524 22.463,381.947 23.153 C 381.826 23.298,381.166 24.092,380.480 24.917 C 375.205 31.262,369.738 37.804,369.490 38.066 C 369.198 38.376,369.165 38.364,368.054 37.544 C 358.432 30.449,343.839 28.223,343.834 33.850 C 343.833 35.436,344.826 36.212,348.905 37.813 C 351.776 38.940,351.545 38.883,353.083 38.841 L 354.250 38.810 353.583 38.568 C 353.217 38.435,352.680 38.216,352.391 38.080 C 352.103 37.944,351.803 37.833,351.725 37.833 C 350.825 37.831,345.555 35.289,345.098 34.637 C 343.091 31.771,350.156 30.871,357.220 33.092 C 360.301 34.061,363.345 35.547,366.451 37.599 C 368.195 38.752,368.377 38.833,369.221 38.833 L 370.124 38.833 371.854 36.798 C 372.805 35.678,374.434 33.747,375.475 32.506 C 376.515 31.265,377.530 30.063,377.730 29.833 C 380.089 27.134,383.333 23.076,383.333 22.824 C 383.333 22.167,379.000 19.095,375.500 17.270 C 367.612 13.158,356.857 11.050,347.750 11.832 M32.219 13.168 C 32.008 13.253,31.790 13.547,31.703 13.866 C 31.619 14.169,30.258 19.292,28.677 25.250 C 27.096 31.208,25.703 36.421,25.581 36.833 C 25.072 38.554,25.075 38.833,25.606 38.833 L 26.083 38.832 27.398 33.958 C 28.121 31.277,28.954 28.183,29.250 27.083 C 29.545 25.983,30.451 22.621,31.263 19.612 L 32.739 14.140 47.494 14.213 C 63.467 14.291,63.932 14.315,68.667 15.318 C 80.781 17.885,87.045 25.190,86.807 36.474 C 86.776 37.957,86.775 39.094,86.806 39.002 C 86.836 38.909,87.080 38.833,87.347 38.833 L 87.833 38.833 87.832 35.875 C 87.824 23.149,79.858 15.442,64.791 13.585 C 60.576 13.066,33.339 12.717,32.219 13.168 M185.217 13.250 C 185.020 13.388,184.808 13.744,184.744 14.042 C 184.681 14.340,183.657 18.221,182.470 22.667 C 181.283 27.113,180.125 31.462,179.898 32.333 C 178.933 36.026,178.297 38.400,178.217 38.610 C 178.156 38.767,178.283 38.833,178.644 38.833 C 179.121 38.833,179.175 38.771,179.405 37.958 C 179.780 36.632,180.465 34.150,180.733 33.145 C 181.549 30.087,185.697 14.696,185.772 14.447 C 185.904 14.006,217.514 14.112,220.750 14.564 C 236.589 16.774,243.544 23.351,243.552 36.125 L 243.554 38.833 244.047 38.833 L 244.540 38.833 244.454 35.208 C 244.149 22.389,236.529 15.387,220.833 13.505 C 216.274 12.959,185.943 12.741,185.217 13.250 M254.938 13.214 C 254.682 13.401,249.333 32.829,249.333 33.572 C 249.333 34.333,249.335 34.333,259.721 34.333 C 265.100 34.333,269.500 34.390,269.499 34.458 C 269.498 34.527,269.274 35.408,269.000 36.417 C 268.375 38.716,268.373 38.834,268.958 38.832 C 269.418 38.831,271.045 33.811,270.744 33.323 C 270.685 33.228,266.662 33.167,260.555 33.167 L 250.464 33.167 250.576 32.708 C 250.847 31.605,255.534 14.246,255.571 14.208 C 255.593 14.185,269.898 14.185,287.358 14.208 L 319.104 14.250 318.253 17.417 C 317.785 19.158,316.656 23.414,315.743 26.873 L 314.083 33.162 303.833 33.206 L 293.583 33.250 292.889 35.750 C 292.038 38.815,292.036 38.833,292.625 38.833 C 293.070 38.833,293.100 38.773,293.638 36.791 C 293.943 35.669,294.222 34.656,294.258 34.542 C 294.309 34.378,296.481 34.333,304.386 34.333 C 315.883 34.333,314.733 34.510,315.241 32.667 C 315.405 32.071,315.639 31.246,315.760 30.833 C 315.881 30.421,316.971 26.377,318.182 21.847 L 320.384 13.611 320.007 13.305 C 319.516 12.908,255.479 12.818,254.938 13.214 M50.453 32.276 C 50.406 32.353,50.061 33.617,49.688 35.083 C 49.315 36.550,48.936 37.998,48.847 38.302 C 48.685 38.849,48.688 38.853,49.211 38.802 L 49.738 38.750 50.488 35.940 L 51.237 33.129 54.494 33.207 C 60.090 33.342,62.562 34.746,62.949 38.009 C 63.042 38.792,63.071 38.833,63.546 38.833 L 64.046 38.833 63.946 37.987 C 63.641 35.414,61.713 33.410,58.722 32.560 C 57.649 32.255,50.614 32.013,50.453 32.276 M129.417 32.775 C 126.315 33.272,123.345 34.856,120.864 37.337 C 119.521 38.681,119.451 38.833,120.178 38.833 C 120.562 38.833,120.885 38.642,121.470 38.067 C 127.522 32.126,137.812 32.284,141.464 38.375 C 141.669 38.717,141.870 38.833,142.253 38.833 C 142.535 38.833,142.865 38.927,142.984 39.042 C 143.104 39.156,142.956 38.837,142.655 38.333 C 140.287 34.368,134.539 31.954,129.417 32.775 M203.343 33.358 C 203.253 33.574,202.909 34.762,202.579 36.000 C 202.249 37.237,201.941 38.381,201.895 38.542 C 201.828 38.775,201.914 38.833,202.327 38.833 C 202.611 38.833,202.872 38.740,202.907 38.625 C 202.942 38.510,203.171 37.667,203.416 36.750 C 203.660 35.833,203.935 34.840,204.026 34.542 L 204.193 34.000 208.721 34.002 C 214.874 34.005,216.854 34.413,218.314 35.979 C 218.931 36.641,219.500 37.808,219.500 38.412 C 219.500 38.714,219.610 38.812,220.019 38.872 L 220.538 38.948 220.437 38.209 C 220.121 35.908,218.537 34.283,215.833 33.486 C 214.683 33.148,214.140 33.112,209.046 33.042 L 203.508 32.967 203.343 33.358 M133.027 44.092 C 128.364 45.680,124.969 50.918,124.929 56.583 C 124.908 59.720,124.941 59.776,126.916 59.943 C 133.006 60.458,138.489 54.366,138.564 47.000 C 138.590 44.406,138.472 43.903,137.809 43.770 C 136.540 43.516,134.268 43.669,133.027 44.092 M310.299 47.328 C 311.844 47.506,313.136 48.087,313.679 48.851 C 314.084 49.420,314.081 49.500,313.653 49.500 C 313.345 49.500,313.322 49.560,313.445 50.042 C 313.733 51.171,313.584 52.112,312.955 53.125 C 312.267 54.233,312.137 54.263,311.938 53.358 L 311.792 52.696 310.191 52.791 C 308.771 52.876,308.554 52.931,308.282 53.277 C 307.872 53.799,307.333 53.797,307.333 53.273 C 307.333 52.891,307.274 52.874,305.506 52.731 L 303.679 52.583 304.159 51.167 C 304.647 49.725,304.644 49.577,304.120 49.475 C 303.095 49.274,305.662 47.514,307.250 47.329 C 308.733 47.156,308.801 47.156,310.299 47.328 M134.333 48.333 C 134.746 48.746,134.769 49.157,134.375 49.081 C 134.215 49.051,133.483 49.017,132.750 49.007 L 131.417 48.988 131.911 48.584 C 132.700 47.939,133.823 47.823,134.333 48.333 M133.494 49.656 C 133.954 50.514,133.065 52.769,132.347 52.568 C 132.110 52.502,131.526 52.364,131.047 52.262 L 130.178 52.076 130.677 51.202 C 131.517 49.731,133.076 48.875,133.494 49.656 M90.846 58.341 C 90.767 58.890,92.066 63.709,92.752 65.410 C 97.545 77.299,108.379 84.903,122.448 86.250 C 141.309 88.057,158.609 77.748,166.082 60.250 C 166.656 58.906,166.685 58.667,166.275 58.667 C 165.967 58.667,165.758 58.988,165.001 60.625 C 156.551 78.904,137.686 88.638,118.250 84.748 C 105.770 82.250,96.327 74.160,92.768 62.917 C 92.337 61.554,91.833 59.475,91.833 59.057 C 91.833 58.755,91.742 58.667,91.431 58.667 C 91.209 58.667,90.990 58.573,90.944 58.458 C 90.897 58.344,90.854 58.291,90.846 58.341 M261.761 59.650 C 261.616 60.255,261.355 61.275,261.180 61.917 C 254.827 85.265,255.017 84.343,256.425 84.931 C 257.017 85.178,279.460 85.300,280.649 85.062 C 281.707 84.850,281.735 84.776,284.266 75.318 C 285.577 70.422,286.763 66.004,286.902 65.500 C 287.041 64.996,287.315 63.983,287.511 63.250 C 287.706 62.517,288.002 61.429,288.168 60.833 C 288.742 58.771,288.748 58.667,288.284 58.667 C 287.914 58.667,287.842 58.790,287.536 59.958 C 287.350 60.669,286.849 62.525,286.422 64.083 C 285.996 65.642,284.630 70.667,283.388 75.250 C 282.146 79.833,281.061 83.715,280.976 83.875 C 280.750 84.302,256.843 84.330,256.489 83.904 C 256.264 83.633,256.390 82.972,257.314 79.583 C 257.489 78.942,257.832 77.667,258.077 76.750 C 258.322 75.833,258.667 74.540,258.844 73.875 C 259.022 73.210,259.326 72.085,259.520 71.375 C 259.715 70.665,260.132 69.108,260.448 67.917 C 260.765 66.725,261.173 65.188,261.357 64.500 C 261.691 63.248,262.390 60.596,262.674 59.500 C 262.881 58.703,262.884 58.715,262.429 58.628 C 262.053 58.556,262.006 58.629,261.761 59.650 M317.139 59.654 C 316.634 60.257,314.805 62.438,313.075 64.500 C 311.345 66.563,309.308 68.992,308.548 69.898 C 306.486 72.359,306.538 72.605,309.636 75.097 C 329.150 90.789,361.015 90.195,371.988 73.934 C 374.760 69.827,375.960 66.084,376.275 60.572 L 376.384 58.667 375.942 58.667 C 375.507 58.667,375.500 58.685,375.500 59.796 C 375.500 68.970,370.401 77.058,361.833 81.477 C 348.949 88.121,328.775 86.530,314.881 77.772 C 311.648 75.735,307.999 72.774,308.001 72.190 C 308.001 72.040,310.438 68.992,313.417 65.417 C 319.263 58.400,319.012 58.740,318.446 58.631 C 318.133 58.572,317.882 58.767,317.139 59.654 M327.333 58.669 L 326.750 58.755 327.750 59.404 C 335.732 64.586,346.378 66.969,349.288 64.225 C 350.801 62.798,349.709 61.511,345.417 59.661 C 343.521 58.844,342.800 58.653,341.800 58.700 L 340.750 58.750 342.500 59.396 C 348.854 61.743,350.431 63.125,347.877 64.110 C 344.401 65.452,335.728 63.279,329.417 59.485 C 328.154 58.726,327.824 58.597,327.333 58.669 M17.005 65.125 C 16.056 68.677,15.149 72.033,14.990 72.583 C 14.713 73.543,14.450 74.510,13.677 77.417 C 13.482 78.150,13.063 79.684,12.745 80.826 C 11.926 83.765,12.015 84.574,13.203 84.988 C 14.057 85.286,37.020 85.232,37.742 84.931 C 38.365 84.670,38.579 84.363,38.809 83.397 C 38.945 82.827,40.600 76.648,41.750 72.417 C 41.974 71.592,42.441 69.867,42.787 68.583 L 43.417 66.250 50.417 66.149 C 54.267 66.093,57.754 65.994,58.167 65.929 C 58.579 65.864,59.629 65.699,60.500 65.564 C 66.702 64.599,71.704 62.777,76.124 59.873 C 77.762 58.797,77.867 58.667,77.101 58.667 C 76.597 58.667,76.006 58.945,75.075 59.623 C 73.363 60.867,68.589 62.839,65.083 63.749 C 60.228 65.010,56.878 65.329,48.454 65.332 L 42.825 65.333 42.679 65.718 C 42.598 65.930,41.468 70.073,40.166 74.926 C 38.864 79.779,37.722 83.844,37.628 83.959 C 37.339 84.314,13.344 84.175,13.119 83.818 C 12.996 83.622,13.809 80.341,16.226 71.279 C 19.886 57.560,19.632 58.667,19.115 58.667 C 18.750 58.667,18.645 58.989,17.005 65.125 M118.750 59.125 C 121.242 63.085,128.437 64.700,133.540 62.443 C 135.229 61.696,138.500 59.306,138.500 58.819 C 138.500 58.423,137.581 58.713,136.880 59.331 C 131.979 63.645,124.578 63.815,120.340 59.710 C 119.148 58.556,118.164 58.194,118.750 59.125 M171.540 59.875 C 169.026 68.381,165.186 83.557,165.411 84.096 C 165.878 85.212,165.466 85.180,178.825 85.129 L 190.807 85.083 191.232 84.684 C 191.733 84.213,191.673 84.394,193.089 79.083 C 193.701 76.792,194.336 74.429,194.500 73.833 C 194.665 73.237,194.951 72.188,195.136 71.500 C 195.577 69.858,196.669 65.831,196.776 65.453 C 196.850 65.188,197.046 65.161,198.533 65.203 L 200.206 65.250 201.661 69.000 C 208.176 85.794,207.677 84.618,208.425 84.931 C 209.377 85.329,234.030 85.276,234.831 84.875 C 236.231 84.173,236.189 83.923,233.667 77.917 C 232.550 75.258,230.996 71.546,230.212 69.667 C 229.428 67.787,228.347 65.203,227.810 63.924 C 226.623 61.096,226.623 61.288,227.800 60.859 C 229.006 60.419,232.167 58.882,232.167 58.735 C 232.167 58.444,230.297 58.844,229.167 59.376 C 228.479 59.700,227.429 60.136,226.833 60.345 C 226.237 60.554,225.722 60.745,225.689 60.771 C 225.623 60.820,226.986 64.163,231.897 76.000 C 234.619 82.560,234.950 83.455,234.759 83.750 C 234.488 84.168,208.876 84.372,208.537 83.959 C 208.368 83.754,207.612 81.866,204.777 74.583 C 203.992 72.567,202.890 69.754,202.327 68.333 C 201.765 66.912,201.192 65.431,201.054 65.042 L 200.802 64.333 198.496 64.333 L 196.190 64.333 195.925 65.292 C 195.779 65.819,195.551 66.625,195.420 67.083 C 195.288 67.542,194.608 70.054,193.908 72.667 C 191.995 79.816,191.011 83.375,190.834 83.792 L 190.674 84.167 178.607 84.167 C 164.350 84.167,165.769 84.503,166.662 81.333 C 166.954 80.295,167.212 79.342,167.989 76.417 C 168.485 74.553,169.961 68.993,170.346 67.542 C 170.522 66.877,170.811 65.790,170.989 65.125 C 171.166 64.460,171.582 62.867,171.914 61.583 C 172.245 60.300,172.555 59.119,172.603 58.958 C 172.668 58.738,172.592 58.667,172.293 58.667 C 171.945 58.667,171.854 58.814,171.540 59.875 M246.787 71.898 C 246.610 73.619,246.061 74.210,245.494 73.292 C 245.091 72.640,245.179 72.104,245.793 71.458 C 246.542 70.671,246.898 70.828,246.787 71.898 " stroke="none" fill="#ecbf0e" fill-rule="evenodd"></path><path id="path4" d="M131.167 10.207 C 131.121 10.253,130.333 10.334,129.417 10.387 C 107.745 11.646,90.052 30.894,90.091 53.167 C 90.122 70.297,101.176 83.083,118.750 86.313 C 142.137 90.613,164.666 75.275,169.151 52.000 C 173.227 30.851,160.557 13.441,139.005 10.574 C 137.203 10.334,131.316 10.059,131.167 10.207 M347.833 10.334 C 330.445 11.767,318.696 21.899,318.050 36.016 C 317.582 46.258,322.841 52.424,336.583 57.744 C 348.080 62.194,348.895 62.573,348.356 63.223 C 347.900 63.772,344.505 64.070,342.504 63.736 C 335.947 62.642,330.348 60.021,324.417 55.269 C 322.108 53.419,321.535 53.532,319.221 56.295 C 318.320 57.370,317.546 58.288,317.499 58.333 C 317.426 58.407,315.499 60.713,314.585 61.823 C 314.401 62.046,313.799 62.758,313.247 63.406 C 307.129 70.592,306.665 71.209,306.673 72.162 C 306.695 74.987,316.810 81.438,325.750 84.328 C 328.642 85.262,328.680 85.273,330.500 85.655 C 355.978 91.005,375.983 80.311,376.775 60.917 C 377.234 49.688,371.506 43.504,355.000 37.410 C 353.671 36.919,352.171 36.360,351.667 36.167 C 351.162 35.974,350.412 35.698,350.000 35.554 C 348.701 35.100,346.500 34.029,346.500 33.851 C 346.500 33.539,347.893 33.295,349.583 33.310 C 354.999 33.358,361.427 35.745,366.663 39.653 C 369.386 41.685,369.816 41.617,372.195 38.769 C 373.046 37.750,373.783 36.879,373.832 36.833 C 373.881 36.787,374.699 35.813,375.648 34.667 C 376.598 33.521,377.697 32.205,378.091 31.743 C 386.237 22.185,386.077 22.639,382.317 19.798 C 373.268 12.963,360.024 9.329,347.833 10.334 M138.167 11.011 C 167.498 14.120,179.291 45.793,160.229 70.267 C 140.518 95.575,98.678 90.293,91.439 61.583 C 85.632 38.551,104.035 13.326,128.333 11.014 C 129.387 10.913,130.550 10.802,130.917 10.765 C 131.902 10.667,136.347 10.818,138.167 11.011 M357.333 11.011 C 366.780 11.845,378.108 16.335,383.351 21.324 C 385.088 22.977,386.011 21.529,374.430 35.333 C 373.238 36.754,371.854 38.404,371.354 39.000 C 369.742 40.922,369.342 40.957,367.147 39.369 C 361.111 35.002,355.505 32.935,349.667 32.922 C 346.584 32.916,345.917 33.078,345.917 33.830 C 345.917 34.481,347.256 35.091,354.913 37.925 C 363.941 41.267,368.591 43.948,372.005 47.778 C 378.422 54.979,377.689 67.634,370.364 76.096 C 358.041 90.333,328.148 89.997,309.917 75.418 C 306.210 72.454,306.211 72.568,309.837 68.250 C 315.009 62.090,316.695 60.077,318.800 57.547 C 321.887 53.836,321.783 53.860,324.757 56.165 C 331.893 61.697,339.413 64.588,345.915 64.299 C 347.971 64.208,348.719 63.884,348.801 63.049 C 348.892 62.123,347.719 61.485,341.667 59.174 C 331.546 55.310,328.661 53.919,325.255 51.259 C 314.737 43.045,316.690 25.998,329.167 17.123 C 336.216 12.109,345.918 10.003,357.333 11.011 M31.294 11.922 C 30.556 12.331,30.535 12.393,28.482 20.083 C 28.286 20.817,27.993 21.904,27.831 22.500 C 27.669 23.096,27.306 24.446,27.025 25.500 C 26.744 26.554,25.428 31.467,24.101 36.417 C 22.774 41.367,19.544 53.442,16.922 63.250 C 14.301 73.058,12.046 81.435,11.911 81.865 C 11.325 83.736,11.789 85.113,13.137 85.506 C 13.555 85.628,17.598 85.668,25.864 85.634 L 37.978 85.583 38.477 85.105 C 39.158 84.453,39.080 84.685,40.665 78.583 C 40.737 78.308,40.989 77.371,41.227 76.500 C 41.465 75.629,42.141 73.130,42.730 70.946 C 43.320 68.763,43.842 66.936,43.891 66.887 C 43.940 66.838,46.591 66.776,49.782 66.750 C 54.809 66.708,58.337 66.533,59.833 66.252 C 60.516 66.124,61.173 66.019,61.985 65.909 C 74.631 64.198,85.481 55.188,88.324 44.036 C 92.732 26.741,84.270 14.913,65.500 12.136 C 62.259 11.656,32.113 11.468,31.294 11.922 M184.482 11.911 C 183.621 12.389,183.848 11.638,178.502 31.667 C 178.319 32.354,177.803 34.267,177.356 35.917 C 176.908 37.567,175.963 41.092,175.254 43.750 C 174.545 46.408,173.795 49.221,173.587 50.000 C 173.378 50.779,172.630 53.592,171.924 56.250 C 171.218 58.908,170.538 61.421,170.412 61.833 C 170.287 62.246,168.935 67.265,167.408 72.987 C 164.329 84.524,164.406 84.035,165.507 85.090 L 166.022 85.583 178.499 85.583 C 192.394 85.583,191.540 85.653,192.119 84.474 C 192.281 84.146,194.236 77.089,195.414 72.583 C 195.534 72.125,195.789 71.188,195.982 70.500 C 196.174 69.813,196.534 68.481,196.781 67.542 L 197.231 65.833 198.516 65.833 L 199.802 65.833 200.318 67.072 C 200.601 67.753,200.833 68.348,200.833 68.395 C 200.833 68.441,201.464 70.078,202.235 72.031 C 203.005 73.985,204.364 77.458,205.254 79.750 C 207.103 84.512,207.146 84.604,207.748 85.167 L 208.193 85.583 221.355 85.629 C 233.435 85.671,234.565 85.651,235.111 85.392 C 236.217 84.867,236.589 83.737,236.096 82.396 C 235.838 81.693,235.663 81.270,232.210 73.000 C 228.265 63.550,227.478 61.632,227.532 61.593 C 227.560 61.573,228.033 61.379,228.583 61.163 C 239.396 56.916,245.942 47.676,246.057 36.500 C 246.201 22.440,238.334 14.468,222.000 12.122 C 218.800 11.662,185.270 11.474,184.482 11.911 M254.127 11.928 C 253.334 12.358,253.570 11.583,248.904 29.105 C 247.564 34.138,247.557 34.497,248.782 35.333 L 249.392 35.750 258.362 35.764 C 263.296 35.771,267.380 35.824,267.437 35.881 C 267.494 35.938,267.375 36.607,267.172 37.368 C 266.969 38.128,265.692 42.875,264.334 47.917 C 262.976 52.958,261.437 58.696,260.914 60.667 C 260.391 62.637,259.785 64.897,259.568 65.688 C 258.936 67.989,255.409 81.135,255.078 82.427 C 254.730 83.783,254.952 84.555,255.887 85.239 C 256.429 85.636,279.713 85.888,281.010 85.511 C 282.068 85.204,282.309 84.764,283.176 81.550 C 285.325 73.592,288.889 60.361,289.003 59.917 C 289.117 59.473,294.123 40.889,295.076 37.373 C 295.281 36.615,295.499 35.945,295.561 35.883 C 295.622 35.822,300.006 35.767,305.302 35.761 C 314.210 35.751,314.965 35.728,315.380 35.456 C 316.252 34.885,316.355 34.598,318.160 27.750 C 318.425 26.742,319.276 23.554,320.049 20.667 C 322.072 13.120,321.929 13.799,321.647 13.058 C 321.508 12.694,321.165 12.260,320.844 12.044 L 320.284 11.667 287.434 11.673 C 258.702 11.679,254.526 11.711,254.127 11.928 M62.000 12.335 C 79.849 13.710,89.116 22.064,88.787 36.482 C 88.441 51.673,78.796 62.119,62.083 65.401 C 59.093 65.989,56.086 66.211,49.754 66.314 L 43.424 66.417 41.044 75.333 C 38.830 83.625,38.628 84.282,38.162 84.708 L 37.661 85.167 25.481 85.167 C 13.535 85.167,13.292 85.160,12.829 84.831 C 11.813 84.107,11.811 84.121,13.930 76.249 C 14.991 72.308,15.958 68.708,16.078 68.250 C 16.199 67.792,16.456 66.835,16.649 66.125 C 16.842 65.415,17.143 64.290,17.317 63.625 C 17.492 62.960,17.825 61.742,18.056 60.917 C 18.288 60.092,18.713 58.517,19.001 57.417 C 19.772 54.466,19.774 54.458,24.590 36.583 C 27.035 27.508,29.134 19.708,29.254 19.250 C 29.373 18.792,29.628 17.835,29.819 17.125 C 30.010 16.415,30.313 15.272,30.492 14.587 C 30.876 13.117,31.043 12.772,31.538 12.425 C 31.974 12.120,58.200 12.042,62.000 12.335 M218.667 12.339 C 236.472 13.693,245.552 21.662,245.535 35.917 C 245.521 47.524,239.515 56.158,228.250 60.765 C 227.472 61.083,226.927 61.401,226.942 61.530 C 226.964 61.719,230.688 70.720,234.033 78.667 C 235.999 83.336,236.020 83.409,235.634 84.255 C 235.206 85.194,235.630 85.167,221.521 85.167 L 208.526 85.167 208.028 84.748 C 207.754 84.517,207.416 84.011,207.277 83.623 C 207.138 83.234,206.730 82.167,206.371 81.250 C 206.011 80.333,204.883 77.446,203.865 74.833 C 202.847 72.221,201.604 69.033,201.103 67.750 L 200.192 65.417 198.513 65.369 C 197.589 65.343,196.833 65.353,196.833 65.391 C 196.833 65.429,196.075 68.263,195.149 71.688 C 194.223 75.114,193.407 78.142,193.337 78.417 C 192.842 80.359,191.768 84.135,191.642 84.373 C 191.222 85.173,191.325 85.167,178.408 85.167 L 166.300 85.167 165.716 84.583 C 165.043 83.909,165.037 83.657,165.644 81.458 C 165.840 80.748,166.145 79.623,166.321 78.958 C 166.988 76.452,173.403 52.569,174.525 48.417 C 175.169 46.033,175.843 43.521,176.024 42.833 C 176.205 42.146,176.770 40.046,177.280 38.167 C 177.791 36.287,178.265 34.525,178.335 34.250 C 180.891 24.138,184.059 13.036,184.507 12.625 L 185.005 12.167 200.711 12.167 C 209.880 12.167,217.353 12.239,218.667 12.339 M320.642 12.588 C 320.917 12.819,321.185 13.213,321.238 13.463 C 321.347 13.983,315.999 34.182,315.636 34.620 C 315.061 35.314,314.764 35.333,304.765 35.333 C 299.497 35.333,295.147 35.397,295.099 35.475 C 295.051 35.553,292.566 44.722,289.578 55.850 C 286.590 66.978,284.044 76.458,283.920 76.917 C 283.796 77.375,283.310 79.175,282.839 80.917 C 281.929 84.287,281.725 84.756,281.064 85.007 C 280.812 85.103,275.850 85.167,268.595 85.167 C 253.456 85.167,254.681 85.660,256.172 80.167 C 256.359 79.479,256.653 78.392,256.825 77.750 C 257.525 75.151,264.378 49.688,264.597 48.875 C 264.727 48.394,264.950 47.569,265.093 47.042 C 265.236 46.515,265.492 45.558,265.663 44.917 C 265.834 44.275,266.467 41.928,267.070 39.701 C 267.673 37.474,268.167 35.580,268.167 35.493 C 268.167 35.393,264.741 35.333,259.078 35.333 C 248.551 35.333,248.333 35.299,248.333 33.649 C 248.333 33.137,253.550 13.529,253.822 13.022 C 254.312 12.106,251.936 12.167,287.441 12.167 L 320.141 12.167 320.642 12.588 M51.898 34.625 C 51.839 34.877,51.136 37.558,50.336 40.583 L 48.882 46.083 50.566 46.137 C 57.454 46.357,61.884 43.536,61.905 38.917 C 61.920 35.565,59.625 34.179,54.045 34.170 L 52.006 34.167 51.898 34.625 M57.522 34.907 C 60.431 35.523,61.703 37.030,61.415 39.516 C 60.982 43.248,57.609 45.390,51.798 45.624 L 49.513 45.716 50.013 43.816 C 50.287 42.771,50.779 40.904,51.104 39.667 C 51.430 38.429,51.855 36.798,52.049 36.042 L 52.401 34.667 54.409 34.670 C 55.513 34.671,56.914 34.778,57.522 34.907 M129.461 34.827 C 116.108 37.274,112.526 58.993,124.950 62.176 C 134.045 64.505,142.535 56.696,142.537 46.000 C 142.538 38.352,136.832 33.476,129.461 34.827 M204.954 35.111 C 204.909 35.187,204.339 37.237,203.688 39.667 C 203.037 42.096,202.432 44.334,202.343 44.640 L 202.181 45.197 206.966 45.124 C 212.216 45.045,212.839 44.946,215.091 43.840 C 219.587 41.633,219.612 36.495,215.131 35.399 C 213.812 35.076,205.121 34.830,204.954 35.111 M134.090 35.413 C 146.986 37.880,143.323 60.203,129.726 62.013 C 120.781 63.203,115.413 55.110,118.764 45.484 C 121.291 38.224,127.491 34.150,134.090 35.413 M215.083 35.906 C 219.994 37.259,218.556 42.490,212.806 44.184 C 211.013 44.713,202.711 44.888,202.906 44.393 C 202.973 44.223,203.166 43.558,203.333 42.917 C 203.501 42.275,203.982 40.489,204.402 38.948 C 204.823 37.406,205.167 36.118,205.167 36.084 C 205.167 35.393,212.728 35.257,215.083 35.906 " stroke="none" fill="#f6f6f9" fill-rule="evenodd"></path></g></svg>